<?xml version="1.0" encoding="UTF-8"?>
<!DOCTYPE svg PUBLIC "-//W3C//DTD SVG 1.1//EN" "http://www.w3.org/Graphics/SVG/1.1/DTD/svg11.dtd">
<svg xmlns="http://www.w3.org/2000/svg" version="1.1" viewBox="0 0 53 53" stroke="none">
	<rect width="100%" height="100%" fill="#FFFFFF"/>
	<path d="M10,10h1v1h-1z M11,10h1v1h-1z M12,10h1v1h-1z M13,10h1v1h-1z M14,10h1v1h-1z M15,10h1v1h-1z M16,10h1v1h-1z M18,10h1v1h-1z M19,10h1v1h-1z M20,10h1v1h-1z M21,10h1v1h-1z M24,10h1v1h-1z M25,10h1v1h-1z M26,10h1v1h-1z M28,10h1v1h-1z M29,10h1v1h-1z M32,10h1v1h-1z M33,10h1v1h-1z M36,10h1v1h-1z M37,10h1v1h-1z M38,10h1v1h-1z M39,10h1v1h-1z M40,10h1v1h-1z M41,10h1v1h-1z M42,10h1v1h-1z M10,11h1v1h-1z M16,11h1v1h-1z M18,11h1v1h-1z M19,11h1v1h-1z M21,11h1v1h-1z M23,11h1v1h-1z M24,11h1v1h-1z M25,11h1v1h-1z M26,11h1v1h-1z M27,11h1v1h-1z M29,11h1v1h-1z M30,11h1v1h-1z M32,11h1v1h-1z M33,11h1v1h-1z M34,11h1v1h-1z M36,11h1v1h-1z M42,11h1v1h-1z M10,12h1v1h-1z M12,12h1v1h-1z M13,12h1v1h-1z M14,12h1v1h-1z M16,12h1v1h-1z M18,12h1v1h-1z M19,12h1v1h-1z M22,12h1v1h-1z M23,12h1v1h-1z M29,12h1v1h-1z M30,12h1v1h-1z M34,12h1v1h-1z M36,12h1v1h-1z M38,12h1v1h-1z M39,12h1v1h-1z M40,12h1v1h-1z M42,12h1v1h-1z M10,13h1v1h-1z M12,13h1v1h-1z M13,13h1v1h-1z M14,13h1v1h-1z M16,13h1v1h-1z M18,13h1v1h-1z M19,13h1v1h-1z M21,13h1v1h-1z M22,13h1v1h-1z M23,13h1v1h-1z M24,13h1v1h-1z M25,13h1v1h-1z M27,13h1v1h-1z M29,13h1v1h-1z M34,13h1v1h-1z M36,13h1v1h-1z M38,13h1v1h-1z M39,13h1v1h-1z M40,13h1v1h-1z M42,13h1v1h-1z M10,14h1v1h-1z M12,14h1v1h-1z M13,14h1v1h-1z M14,14h1v1h-1z M16,14h1v1h-1z M18,14h1v1h-1z M19,14h1v1h-1z M20,14h1v1h-1z M23,14h1v1h-1z M25,14h1v1h-1z M26,14h1v1h-1z M27,14h1v1h-1z M31,14h1v1h-1z M33,14h1v1h-1z M36,14h1v1h-1z M38,14h1v1h-1z M39,14h1v1h-1z M40,14h1v1h-1z M42,14h1v1h-1z M10,15h1v1h-1z M16,15h1v1h-1z M21,15h1v1h-1z M22,15h1v1h-1z M23,15h1v1h-1z M25,15h1v1h-1z M28,15h1v1h-1z M32,15h1v1h-1z M33,15h1v1h-1z M36,15h1v1h-1z M42,15h1v1h-1z M10,16h1v1h-1z M11,16h1v1h-1z M12,16h1v1h-1z M13,16h1v1h-1z M14,16h1v1h-1z M15,16h1v1h-1z M16,16h1v1h-1z M18,16h1v1h-1z M20,16h1v1h-1z M22,16h1v1h-1z M24,16h1v1h-1z M26,16h1v1h-1z M28,16h1v1h-1z M30,16h1v1h-1z M32,16h1v1h-1z M34,16h1v1h-1z M36,16h1v1h-1z M37,16h1v1h-1z M38,16h1v1h-1z M39,16h1v1h-1z M40,16h1v1h-1z M41,16h1v1h-1z M42,16h1v1h-1z M18,17h1v1h-1z M20,17h1v1h-1z M21,17h1v1h-1z M22,17h1v1h-1z M27,17h1v1h-1z M28,17h1v1h-1z M30,17h1v1h-1z M31,17h1v1h-1z M32,17h1v1h-1z M33,17h1v1h-1z M34,17h1v1h-1z M11,18h1v1h-1z M12,18h1v1h-1z M14,18h1v1h-1z M16,18h1v1h-1z M17,18h1v1h-1z M23,18h1v1h-1z M26,18h1v1h-1z M27,18h1v1h-1z M29,18h1v1h-1z M30,18h1v1h-1z M31,18h1v1h-1z M36,18h1v1h-1z M38,18h1v1h-1z M39,18h1v1h-1z M40,18h1v1h-1z M41,18h1v1h-1z M42,18h1v1h-1z M10,19h1v1h-1z M14,19h1v1h-1z M15,19h1v1h-1z M17,19h1v1h-1z M18,19h1v1h-1z M19,19h1v1h-1z M21,19h1v1h-1z M22,19h1v1h-1z M23,19h1v1h-1z M24,19h1v1h-1z M30,19h1v1h-1z M32,19h1v1h-1z M34,19h1v1h-1z M35,19h1v1h-1z M36,19h1v1h-1z M37,19h1v1h-1z M41,19h1v1h-1z M42,19h1v1h-1z M10,20h1v1h-1z M11,20h1v1h-1z M16,20h1v1h-1z M17,20h1v1h-1z M18,20h1v1h-1z M22,20h1v1h-1z M25,20h1v1h-1z M26,20h1v1h-1z M27,20h1v1h-1z M30,20h1v1h-1z M32,20h1v1h-1z M34,20h1v1h-1z M35,20h1v1h-1z M36,20h1v1h-1z M37,20h1v1h-1z M40,20h1v1h-1z M41,20h1v1h-1z M42,20h1v1h-1z M10,21h1v1h-1z M18,21h1v1h-1z M19,21h1v1h-1z M20,21h1v1h-1z M30,21h1v1h-1z M31,21h1v1h-1z M32,21h1v1h-1z M34,21h1v1h-1z M35,21h1v1h-1z M36,21h1v1h-1z M38,21h1v1h-1z M42,21h1v1h-1z M11,22h1v1h-1z M14,22h1v1h-1z M16,22h1v1h-1z M18,22h1v1h-1z M21,22h1v1h-1z M22,22h1v1h-1z M24,22h1v1h-1z M25,22h1v1h-1z M29,22h1v1h-1z M30,22h1v1h-1z M33,22h1v1h-1z M36,22h1v1h-1z M37,22h1v1h-1z M39,22h1v1h-1z M41,22h1v1h-1z M42,22h1v1h-1z M12,23h1v1h-1z M14,23h1v1h-1z M17,23h1v1h-1z M18,23h1v1h-1z M19,23h1v1h-1z M23,23h1v1h-1z M24,23h1v1h-1z M27,23h1v1h-1z M29,23h1v1h-1z M31,23h1v1h-1z M32,23h1v1h-1z M36,23h1v1h-1z M39,23h1v1h-1z M42,23h1v1h-1z M10,24h1v1h-1z M15,24h1v1h-1z M16,24h1v1h-1z M17,24h1v1h-1z M21,24h1v1h-1z M23,24h1v1h-1z M24,24h1v1h-1z M26,24h1v1h-1z M35,24h1v1h-1z M37,24h1v1h-1z M39,24h1v1h-1z M40,24h1v1h-1z M41,24h1v1h-1z M42,24h1v1h-1z M10,25h1v1h-1z M11,25h1v1h-1z M14,25h1v1h-1z M15,25h1v1h-1z M17,25h1v1h-1z M18,25h1v1h-1z M21,25h1v1h-1z M22,25h1v1h-1z M23,25h1v1h-1z M27,25h1v1h-1z M29,25h1v1h-1z M31,25h1v1h-1z M32,25h1v1h-1z M34,25h1v1h-1z M36,25h1v1h-1z M38,25h1v1h-1z M41,25h1v1h-1z M10,26h1v1h-1z M11,26h1v1h-1z M14,26h1v1h-1z M15,26h1v1h-1z M16,26h1v1h-1z M19,26h1v1h-1z M20,26h1v1h-1z M21,26h1v1h-1z M22,26h1v1h-1z M23,26h1v1h-1z M24,26h1v1h-1z M25,26h1v1h-1z M26,26h1v1h-1z M27,26h1v1h-1z M30,26h1v1h-1z M31,26h1v1h-1z M34,26h1v1h-1z M35,26h1v1h-1z M36,26h1v1h-1z M39,26h1v1h-1z M13,27h1v1h-1z M19,27h1v1h-1z M21,27h1v1h-1z M26,27h1v1h-1z M31,27h1v1h-1z M32,27h1v1h-1z M36,27h1v1h-1z M37,27h1v1h-1z M42,27h1v1h-1z M15,28h1v1h-1z M16,28h1v1h-1z M17,28h1v1h-1z M18,28h1v1h-1z M20,28h1v1h-1z M22,28h1v1h-1z M24,28h1v1h-1z M27,28h1v1h-1z M28,28h1v1h-1z M31,28h1v1h-1z M35,28h1v1h-1z M40,28h1v1h-1z M41,28h1v1h-1z M42,28h1v1h-1z M11,29h1v1h-1z M12,29h1v1h-1z M14,29h1v1h-1z M15,29h1v1h-1z M17,29h1v1h-1z M18,29h1v1h-1z M20,29h1v1h-1z M21,29h1v1h-1z M22,29h1v1h-1z M23,29h1v1h-1z M24,29h1v1h-1z M28,29h1v1h-1z M29,29h1v1h-1z M30,29h1v1h-1z M31,29h1v1h-1z M32,29h1v1h-1z M34,29h1v1h-1z M37,29h1v1h-1z M38,29h1v1h-1z M42,29h1v1h-1z M10,30h1v1h-1z M13,30h1v1h-1z M16,30h1v1h-1z M18,30h1v1h-1z M19,30h1v1h-1z M20,30h1v1h-1z M21,30h1v1h-1z M22,30h1v1h-1z M24,30h1v1h-1z M25,30h1v1h-1z M27,30h1v1h-1z M28,30h1v1h-1z M31,30h1v1h-1z M35,30h1v1h-1z M36,30h1v1h-1z M37,30h1v1h-1z M39,30h1v1h-1z M41,30h1v1h-1z M11,31h1v1h-1z M12,31h1v1h-1z M15,31h1v1h-1z M18,31h1v1h-1z M20,31h1v1h-1z M24,31h1v1h-1z M26,31h1v1h-1z M27,31h1v1h-1z M29,31h1v1h-1z M30,31h1v1h-1z M31,31h1v1h-1z M34,31h1v1h-1z M35,31h1v1h-1z M36,31h1v1h-1z M37,31h1v1h-1z M41,31h1v1h-1z M42,31h1v1h-1z M10,32h1v1h-1z M12,32h1v1h-1z M14,32h1v1h-1z M15,32h1v1h-1z M16,32h1v1h-1z M18,32h1v1h-1z M19,32h1v1h-1z M23,32h1v1h-1z M24,32h1v1h-1z M25,32h1v1h-1z M27,32h1v1h-1z M28,32h1v1h-1z M35,32h1v1h-1z M36,32h1v1h-1z M38,32h1v1h-1z M40,32h1v1h-1z M41,32h1v1h-1z M42,32h1v1h-1z M11,33h1v1h-1z M12,33h1v1h-1z M13,33h1v1h-1z M15,33h1v1h-1z M21,33h1v1h-1z M22,33h1v1h-1z M23,33h1v1h-1z M26,33h1v1h-1z M28,33h1v1h-1z M31,33h1v1h-1z M33,33h1v1h-1z M36,33h1v1h-1z M37,33h1v1h-1z M38,33h1v1h-1z M42,33h1v1h-1z M10,34h1v1h-1z M12,34h1v1h-1z M14,34h1v1h-1z M15,34h1v1h-1z M16,34h1v1h-1z M18,34h1v1h-1z M19,34h1v1h-1z M20,34h1v1h-1z M21,34h1v1h-1z M22,34h1v1h-1z M24,34h1v1h-1z M25,34h1v1h-1z M28,34h1v1h-1z M30,34h1v1h-1z M31,34h1v1h-1z M34,34h1v1h-1z M35,34h1v1h-1z M36,34h1v1h-1z M37,34h1v1h-1z M38,34h1v1h-1z M18,35h1v1h-1z M21,35h1v1h-1z M24,35h1v1h-1z M28,35h1v1h-1z M30,35h1v1h-1z M31,35h1v1h-1z M32,35h1v1h-1z M34,35h1v1h-1z M38,35h1v1h-1z M39,35h1v1h-1z M41,35h1v1h-1z M42,35h1v1h-1z M10,36h1v1h-1z M11,36h1v1h-1z M12,36h1v1h-1z M13,36h1v1h-1z M14,36h1v1h-1z M15,36h1v1h-1z M16,36h1v1h-1z M18,36h1v1h-1z M20,36h1v1h-1z M27,36h1v1h-1z M30,36h1v1h-1z M31,36h1v1h-1z M33,36h1v1h-1z M34,36h1v1h-1z M36,36h1v1h-1z M38,36h1v1h-1z M40,36h1v1h-1z M42,36h1v1h-1z M10,37h1v1h-1z M16,37h1v1h-1z M19,37h1v1h-1z M20,37h1v1h-1z M21,37h1v1h-1z M23,37h1v1h-1z M24,37h1v1h-1z M25,37h1v1h-1z M26,37h1v1h-1z M31,37h1v1h-1z M32,37h1v1h-1z M34,37h1v1h-1z M38,37h1v1h-1z M10,38h1v1h-1z M12,38h1v1h-1z M13,38h1v1h-1z M14,38h1v1h-1z M16,38h1v1h-1z M18,38h1v1h-1z M19,38h1v1h-1z M23,38h1v1h-1z M28,38h1v1h-1z M30,38h1v1h-1z M34,38h1v1h-1z M35,38h1v1h-1z M36,38h1v1h-1z M37,38h1v1h-1z M38,38h1v1h-1z M39,38h1v1h-1z M41,38h1v1h-1z M10,39h1v1h-1z M12,39h1v1h-1z M13,39h1v1h-1z M14,39h1v1h-1z M16,39h1v1h-1z M20,39h1v1h-1z M22,39h1v1h-1z M23,39h1v1h-1z M26,39h1v1h-1z M27,39h1v1h-1z M28,39h1v1h-1z M30,39h1v1h-1z M31,39h1v1h-1z M32,39h1v1h-1z M34,39h1v1h-1z M38,39h1v1h-1z M39,39h1v1h-1z M41,39h1v1h-1z M42,39h1v1h-1z M10,40h1v1h-1z M12,40h1v1h-1z M13,40h1v1h-1z M14,40h1v1h-1z M16,40h1v1h-1z M18,40h1v1h-1z M20,40h1v1h-1z M21,40h1v1h-1z M23,40h1v1h-1z M25,40h1v1h-1z M26,40h1v1h-1z M30,40h1v1h-1z M33,40h1v1h-1z M34,40h1v1h-1z M35,40h1v1h-1z M38,40h1v1h-1z M39,40h1v1h-1z M42,40h1v1h-1z M10,41h1v1h-1z M16,41h1v1h-1z M18,41h1v1h-1z M20,41h1v1h-1z M22,41h1v1h-1z M24,41h1v1h-1z M26,41h1v1h-1z M27,41h1v1h-1z M29,41h1v1h-1z M31,41h1v1h-1z M32,41h1v1h-1z M38,41h1v1h-1z M41,41h1v1h-1z M10,42h1v1h-1z M11,42h1v1h-1z M12,42h1v1h-1z M13,42h1v1h-1z M14,42h1v1h-1z M15,42h1v1h-1z M16,42h1v1h-1z M20,42h1v1h-1z M23,42h1v1h-1z M26,42h1v1h-1z M28,42h1v1h-1z M29,42h1v1h-1z M30,42h1v1h-1z M31,42h1v1h-1z M33,42h1v1h-1z M34,42h1v1h-1z M36,42h1v1h-1z M38,42h1v1h-1z M41,42h1v1h-1z M42,42h1v1h-1z" fill="#000000"/>
</svg>
