<?xml version="1.0" encoding="UTF-8"?>
<!DOCTYPE svg PUBLIC "-//W3C//DTD SVG 1.1//EN" "http://www.w3.org/Graphics/SVG/1.1/DTD/svg11.dtd">
<svg xmlns="http://www.w3.org/2000/svg" version="1.1" viewBox="0 0 73 73" stroke="none">
	<rect width="100%" height="100%" fill="#FFFFFF"/>
	<path d="M10,10h1v1h-1z M11,10h1v1h-1z M12,10h1v1h-1z M13,10h1v1h-1z M14,10h1v1h-1z M15,10h1v1h-1z M16,10h1v1h-1z M18,10h1v1h-1z M19,10h1v1h-1z M21,10h1v1h-1z M22,10h1v1h-1z M23,10h1v1h-1z M24,10h1v1h-1z M25,10h1v1h-1z M28,10h1v1h-1z M29,10h1v1h-1z M31,10h1v1h-1z M32,10h1v1h-1z M34,10h1v1h-1z M37,10h1v1h-1z M38,10h1v1h-1z M40,10h1v1h-1z M42,10h1v1h-1z M45,10h1v1h-1z M47,10h1v1h-1z M52,10h1v1h-1z M56,10h1v1h-1z M57,10h1v1h-1z M58,10h1v1h-1z M59,10h1v1h-1z M60,10h1v1h-1z M61,10h1v1h-1z M62,10h1v1h-1z M10,11h1v1h-1z M16,11h1v1h-1z M18,11h1v1h-1z M19,11h1v1h-1z M25,11h1v1h-1z M26,11h1v1h-1z M28,11h1v1h-1z M30,11h1v1h-1z M31,11h1v1h-1z M33,11h1v1h-1z M34,11h1v1h-1z M36,11h1v1h-1z M40,11h1v1h-1z M43,11h1v1h-1z M48,11h1v1h-1z M50,11h1v1h-1z M51,11h1v1h-1z M52,11h1v1h-1z M53,11h1v1h-1z M56,11h1v1h-1z M62,11h1v1h-1z M10,12h1v1h-1z M12,12h1v1h-1z M13,12h1v1h-1z M14,12h1v1h-1z M16,12h1v1h-1z M18,12h1v1h-1z M23,12h1v1h-1z M24,12h1v1h-1z M28,12h1v1h-1z M30,12h1v1h-1z M34,12h1v1h-1z M35,12h1v1h-1z M36,12h1v1h-1z M38,12h1v1h-1z M39,12h1v1h-1z M41,12h1v1h-1z M42,12h1v1h-1z M43,12h1v1h-1z M45,12h1v1h-1z M46,12h1v1h-1z M47,12h1v1h-1z M49,12h1v1h-1z M50,12h1v1h-1z M53,12h1v1h-1z M56,12h1v1h-1z M58,12h1v1h-1z M59,12h1v1h-1z M60,12h1v1h-1z M62,12h1v1h-1z M10,13h1v1h-1z M12,13h1v1h-1z M13,13h1v1h-1z M14,13h1v1h-1z M16,13h1v1h-1z M21,13h1v1h-1z M23,13h1v1h-1z M24,13h1v1h-1z M26,13h1v1h-1z M28,13h1v1h-1z M30,13h1v1h-1z M34,13h1v1h-1z M35,13h1v1h-1z M37,13h1v1h-1z M41,13h1v1h-1z M42,13h1v1h-1z M46,13h1v1h-1z M48,13h1v1h-1z M51,13h1v1h-1z M52,13h1v1h-1z M54,13h1v1h-1z M56,13h1v1h-1z M58,13h1v1h-1z M59,13h1v1h-1z M60,13h1v1h-1z M62,13h1v1h-1z M10,14h1v1h-1z M12,14h1v1h-1z M13,14h1v1h-1z M14,14h1v1h-1z M16,14h1v1h-1z M19,14h1v1h-1z M20,14h1v1h-1z M21,14h1v1h-1z M22,14h1v1h-1z M23,14h1v1h-1z M25,14h1v1h-1z M27,14h1v1h-1z M28,14h1v1h-1z M30,14h1v1h-1z M32,14h1v1h-1z M34,14h1v1h-1z M35,14h1v1h-1z M36,14h1v1h-1z M37,14h1v1h-1z M38,14h1v1h-1z M39,14h1v1h-1z M42,14h1v1h-1z M44,14h1v1h-1z M45,14h1v1h-1z M46,14h1v1h-1z M47,14h1v1h-1z M49,14h1v1h-1z M50,14h1v1h-1z M51,14h1v1h-1z M52,14h1v1h-1z M56,14h1v1h-1z M58,14h1v1h-1z M59,14h1v1h-1z M60,14h1v1h-1z M62,14h1v1h-1z M10,15h1v1h-1z M16,15h1v1h-1z M18,15h1v1h-1z M19,15h1v1h-1z M26,15h1v1h-1z M27,15h1v1h-1z M28,15h1v1h-1z M34,15h1v1h-1z M38,15h1v1h-1z M39,15h1v1h-1z M43,15h1v1h-1z M44,15h1v1h-1z M46,15h1v1h-1z M48,15h1v1h-1z M50,15h1v1h-1z M52,15h1v1h-1z M56,15h1v1h-1z M62,15h1v1h-1z M10,16h1v1h-1z M11,16h1v1h-1z M12,16h1v1h-1z M13,16h1v1h-1z M14,16h1v1h-1z M15,16h1v1h-1z M16,16h1v1h-1z M18,16h1v1h-1z M20,16h1v1h-1z M22,16h1v1h-1z M24,16h1v1h-1z M26,16h1v1h-1z M28,16h1v1h-1z M30,16h1v1h-1z M32,16h1v1h-1z M34,16h1v1h-1z M36,16h1v1h-1z M38,16h1v1h-1z M40,16h1v1h-1z M42,16h1v1h-1z M44,16h1v1h-1z M46,16h1v1h-1z M48,16h1v1h-1z M50,16h1v1h-1z M52,16h1v1h-1z M54,16h1v1h-1z M56,16h1v1h-1z M57,16h1v1h-1z M58,16h1v1h-1z M59,16h1v1h-1z M60,16h1v1h-1z M61,16h1v1h-1z M62,16h1v1h-1z M18,17h1v1h-1z M19,17h1v1h-1z M21,17h1v1h-1z M24,17h1v1h-1z M25,17h1v1h-1z M28,17h1v1h-1z M30,17h1v1h-1z M31,17h1v1h-1z M32,17h1v1h-1z M33,17h1v1h-1z M34,17h1v1h-1z M38,17h1v1h-1z M41,17h1v1h-1z M42,17h1v1h-1z M45,17h1v1h-1z M47,17h1v1h-1z M50,17h1v1h-1z M53,17h1v1h-1z M12,18h1v1h-1z M13,18h1v1h-1z M14,18h1v1h-1z M16,18h1v1h-1z M18,18h1v1h-1z M19,18h1v1h-1z M21,18h1v1h-1z M24,18h1v1h-1z M25,18h1v1h-1z M26,18h1v1h-1z M30,18h1v1h-1z M31,18h1v1h-1z M32,18h1v1h-1z M34,18h1v1h-1z M35,18h1v1h-1z M36,18h1v1h-1z M37,18h1v1h-1z M38,18h1v1h-1z M39,18h1v1h-1z M40,18h1v1h-1z M41,18h1v1h-1z M44,18h1v1h-1z M45,18h1v1h-1z M46,18h1v1h-1z M47,18h1v1h-1z M48,18h1v1h-1z M52,18h1v1h-1z M53,18h1v1h-1z M54,18h1v1h-1z M55,18h1v1h-1z M56,18h1v1h-1z M57,18h1v1h-1z M60,18h1v1h-1z M61,18h1v1h-1z M62,18h1v1h-1z M10,19h1v1h-1z M11,19h1v1h-1z M12,19h1v1h-1z M13,19h1v1h-1z M14,19h1v1h-1z M15,19h1v1h-1z M18,19h1v1h-1z M20,19h1v1h-1z M21,19h1v1h-1z M22,19h1v1h-1z M23,19h1v1h-1z M25,19h1v1h-1z M26,19h1v1h-1z M27,19h1v1h-1z M28,19h1v1h-1z M31,19h1v1h-1z M32,19h1v1h-1z M33,19h1v1h-1z M36,19h1v1h-1z M38,19h1v1h-1z M39,19h1v1h-1z M40,19h1v1h-1z M42,19h1v1h-1z M43,19h1v1h-1z M44,19h1v1h-1z M47,19h1v1h-1z M50,19h1v1h-1z M52,19h1v1h-1z M59,19h1v1h-1z M62,19h1v1h-1z M10,20h1v1h-1z M16,20h1v1h-1z M18,20h1v1h-1z M21,20h1v1h-1z M25,20h1v1h-1z M26,20h1v1h-1z M27,20h1v1h-1z M28,20h1v1h-1z M29,20h1v1h-1z M30,20h1v1h-1z M32,20h1v1h-1z M33,20h1v1h-1z M35,20h1v1h-1z M38,20h1v1h-1z M42,20h1v1h-1z M43,20h1v1h-1z M44,20h1v1h-1z M46,20h1v1h-1z M50,20h1v1h-1z M51,20h1v1h-1z M53,20h1v1h-1z M54,20h1v1h-1z M55,20h1v1h-1z M56,20h1v1h-1z M57,20h1v1h-1z M59,20h1v1h-1z M60,20h1v1h-1z M10,21h1v1h-1z M13,21h1v1h-1z M14,21h1v1h-1z M17,21h1v1h-1z M19,21h1v1h-1z M22,21h1v1h-1z M24,21h1v1h-1z M26,21h1v1h-1z M27,21h1v1h-1z M30,21h1v1h-1z M31,21h1v1h-1z M32,21h1v1h-1z M34,21h1v1h-1z M38,21h1v1h-1z M39,21h1v1h-1z M41,21h1v1h-1z M44,21h1v1h-1z M45,21h1v1h-1z M47,21h1v1h-1z M51,21h1v1h-1z M56,21h1v1h-1z M57,21h1v1h-1z M59,21h1v1h-1z M62,21h1v1h-1z M10,22h1v1h-1z M12,22h1v1h-1z M13,22h1v1h-1z M14,22h1v1h-1z M15,22h1v1h-1z M16,22h1v1h-1z M17,22h1v1h-1z M19,22h1v1h-1z M20,22h1v1h-1z M21,22h1v1h-1z M22,22h1v1h-1z M23,22h1v1h-1z M25,22h1v1h-1z M28,22h1v1h-1z M29,22h1v1h-1z M32,22h1v1h-1z M36,22h1v1h-1z M37,22h1v1h-1z M38,22h1v1h-1z M39,22h1v1h-1z M40,22h1v1h-1z M42,22h1v1h-1z M43,22h1v1h-1z M45,22h1v1h-1z M46,22h1v1h-1z M47,22h1v1h-1z M48,22h1v1h-1z M49,22h1v1h-1z M55,22h1v1h-1z M56,22h1v1h-1z M58,22h1v1h-1z M60,22h1v1h-1z M62,22h1v1h-1z M10,23h1v1h-1z M11,23h1v1h-1z M12,23h1v1h-1z M17,23h1v1h-1z M18,23h1v1h-1z M20,23h1v1h-1z M22,23h1v1h-1z M26,23h1v1h-1z M28,23h1v1h-1z M30,23h1v1h-1z M33,23h1v1h-1z M35,23h1v1h-1z M37,23h1v1h-1z M38,23h1v1h-1z M43,23h1v1h-1z M44,23h1v1h-1z M46,23h1v1h-1z M47,23h1v1h-1z M51,23h1v1h-1z M52,23h1v1h-1z M53,23h1v1h-1z M54,23h1v1h-1z M56,23h1v1h-1z M59,23h1v1h-1z M62,23h1v1h-1z M11,24h1v1h-1z M13,24h1v1h-1z M14,24h1v1h-1z M16,24h1v1h-1z M17,24h1v1h-1z M20,24h1v1h-1z M22,24h1v1h-1z M23,24h1v1h-1z M26,24h1v1h-1z M27,24h1v1h-1z M30,24h1v1h-1z M32,24h1v1h-1z M33,24h1v1h-1z M34,24h1v1h-1z M37,24h1v1h-1z M39,24h1v1h-1z M47,24h1v1h-1z M49,24h1v1h-1z M54,24h1v1h-1z M55,24h1v1h-1z M58,24h1v1h-1z M13,25h1v1h-1z M17,25h1v1h-1z M18,25h1v1h-1z M20,25h1v1h-1z M21,25h1v1h-1z M22,25h1v1h-1z M24,25h1v1h-1z M27,25h1v1h-1z M28,25h1v1h-1z M29,25h1v1h-1z M30,25h1v1h-1z M31,25h1v1h-1z M39,25h1v1h-1z M40,25h1v1h-1z M41,25h1v1h-1z M44,25h1v1h-1z M45,25h1v1h-1z M47,25h1v1h-1z M49,25h1v1h-1z M50,25h1v1h-1z M53,25h1v1h-1z M54,25h1v1h-1z M58,25h1v1h-1z M61,25h1v1h-1z M62,25h1v1h-1z M14,26h1v1h-1z M16,26h1v1h-1z M17,26h1v1h-1z M18,26h1v1h-1z M20,26h1v1h-1z M21,26h1v1h-1z M22,26h1v1h-1z M27,26h1v1h-1z M28,26h1v1h-1z M31,26h1v1h-1z M32,26h1v1h-1z M33,26h1v1h-1z M35,26h1v1h-1z M39,26h1v1h-1z M46,26h1v1h-1z M48,26h1v1h-1z M49,26h1v1h-1z M51,26h1v1h-1z M52,26h1v1h-1z M53,26h1v1h-1z M54,26h1v1h-1z M55,26h1v1h-1z M57,26h1v1h-1z M58,26h1v1h-1z M59,26h1v1h-1z M60,26h1v1h-1z M62,26h1v1h-1z M10,27h1v1h-1z M11,27h1v1h-1z M12,27h1v1h-1z M13,27h1v1h-1z M14,27h1v1h-1z M15,27h1v1h-1z M17,27h1v1h-1z M19,27h1v1h-1z M20,27h1v1h-1z M23,27h1v1h-1z M25,27h1v1h-1z M26,27h1v1h-1z M28,27h1v1h-1z M29,27h1v1h-1z M33,27h1v1h-1z M35,27h1v1h-1z M36,27h1v1h-1z M38,27h1v1h-1z M39,27h1v1h-1z M40,27h1v1h-1z M41,27h1v1h-1z M44,27h1v1h-1z M47,27h1v1h-1z M49,27h1v1h-1z M50,27h1v1h-1z M52,27h1v1h-1z M53,27h1v1h-1z M58,27h1v1h-1z M59,27h1v1h-1z M61,27h1v1h-1z M62,27h1v1h-1z M11,28h1v1h-1z M12,28h1v1h-1z M13,28h1v1h-1z M15,28h1v1h-1z M16,28h1v1h-1z M17,28h1v1h-1z M18,28h1v1h-1z M19,28h1v1h-1z M22,28h1v1h-1z M23,28h1v1h-1z M25,28h1v1h-1z M26,28h1v1h-1z M35,28h1v1h-1z M37,28h1v1h-1z M38,28h1v1h-1z M43,28h1v1h-1z M44,28h1v1h-1z M45,28h1v1h-1z M47,28h1v1h-1z M48,28h1v1h-1z M51,28h1v1h-1z M53,28h1v1h-1z M56,28h1v1h-1z M57,28h1v1h-1z M59,28h1v1h-1z M60,28h1v1h-1z M10,29h1v1h-1z M11,29h1v1h-1z M12,29h1v1h-1z M15,29h1v1h-1z M20,29h1v1h-1z M23,29h1v1h-1z M24,29h1v1h-1z M25,29h1v1h-1z M26,29h1v1h-1z M27,29h1v1h-1z M31,29h1v1h-1z M33,29h1v1h-1z M37,29h1v1h-1z M39,29h1v1h-1z M42,29h1v1h-1z M43,29h1v1h-1z M46,29h1v1h-1z M47,29h1v1h-1z M48,29h1v1h-1z M51,29h1v1h-1z M52,29h1v1h-1z M53,29h1v1h-1z M57,29h1v1h-1z M59,29h1v1h-1z M61,29h1v1h-1z M62,29h1v1h-1z M11,30h1v1h-1z M12,30h1v1h-1z M13,30h1v1h-1z M16,30h1v1h-1z M17,30h1v1h-1z M18,30h1v1h-1z M19,30h1v1h-1z M21,30h1v1h-1z M23,30h1v1h-1z M32,30h1v1h-1z M34,30h1v1h-1z M37,30h1v1h-1z M39,30h1v1h-1z M40,30h1v1h-1z M41,30h1v1h-1z M43,30h1v1h-1z M45,30h1v1h-1z M48,30h1v1h-1z M53,30h1v1h-1z M54,30h1v1h-1z M58,30h1v1h-1z M60,30h1v1h-1z M13,31h1v1h-1z M18,31h1v1h-1z M19,31h1v1h-1z M22,31h1v1h-1z M23,31h1v1h-1z M24,31h1v1h-1z M26,31h1v1h-1z M27,31h1v1h-1z M28,31h1v1h-1z M31,31h1v1h-1z M35,31h1v1h-1z M38,31h1v1h-1z M40,31h1v1h-1z M41,31h1v1h-1z M42,31h1v1h-1z M43,31h1v1h-1z M47,31h1v1h-1z M48,31h1v1h-1z M49,31h1v1h-1z M50,31h1v1h-1z M51,31h1v1h-1z M52,31h1v1h-1z M57,31h1v1h-1z M59,31h1v1h-1z M61,31h1v1h-1z M11,32h1v1h-1z M12,32h1v1h-1z M14,32h1v1h-1z M16,32h1v1h-1z M17,32h1v1h-1z M19,32h1v1h-1z M20,32h1v1h-1z M21,32h1v1h-1z M25,32h1v1h-1z M27,32h1v1h-1z M29,32h1v1h-1z M31,32h1v1h-1z M32,32h1v1h-1z M33,32h1v1h-1z M36,32h1v1h-1z M37,32h1v1h-1z M38,32h1v1h-1z M39,32h1v1h-1z M40,32h1v1h-1z M43,32h1v1h-1z M44,32h1v1h-1z M45,32h1v1h-1z M50,32h1v1h-1z M53,32h1v1h-1z M56,32h1v1h-1z M58,32h1v1h-1z M60,32h1v1h-1z M61,32h1v1h-1z M12,33h1v1h-1z M17,33h1v1h-1z M18,33h1v1h-1z M19,33h1v1h-1z M24,33h1v1h-1z M25,33h1v1h-1z M28,33h1v1h-1z M29,33h1v1h-1z M30,33h1v1h-1z M32,33h1v1h-1z M33,33h1v1h-1z M34,33h1v1h-1z M40,33h1v1h-1z M42,33h1v1h-1z M45,33h1v1h-1z M47,33h1v1h-1z M53,33h1v1h-1z M54,33h1v1h-1z M57,33h1v1h-1z M59,33h1v1h-1z M62,33h1v1h-1z M10,34h1v1h-1z M11,34h1v1h-1z M12,34h1v1h-1z M13,34h1v1h-1z M14,34h1v1h-1z M15,34h1v1h-1z M16,34h1v1h-1z M17,34h1v1h-1z M18,34h1v1h-1z M19,34h1v1h-1z M22,34h1v1h-1z M23,34h1v1h-1z M24,34h1v1h-1z M26,34h1v1h-1z M27,34h1v1h-1z M28,34h1v1h-1z M31,34h1v1h-1z M32,34h1v1h-1z M34,34h1v1h-1z M35,34h1v1h-1z M36,34h1v1h-1z M37,34h1v1h-1z M38,34h1v1h-1z M39,34h1v1h-1z M43,34h1v1h-1z M44,34h1v1h-1z M46,34h1v1h-1z M47,34h1v1h-1z M48,34h1v1h-1z M52,34h1v1h-1z M54,34h1v1h-1z M55,34h1v1h-1z M56,34h1v1h-1z M57,34h1v1h-1z M58,34h1v1h-1z M60,34h1v1h-1z M61,34h1v1h-1z M10,35h1v1h-1z M13,35h1v1h-1z M14,35h1v1h-1z M18,35h1v1h-1z M20,35h1v1h-1z M21,35h1v1h-1z M22,35h1v1h-1z M27,35h1v1h-1z M30,35h1v1h-1z M32,35h1v1h-1z M34,35h1v1h-1z M38,35h1v1h-1z M39,35h1v1h-1z M40,35h1v1h-1z M45,35h1v1h-1z M46,35h1v1h-1z M47,35h1v1h-1z M52,35h1v1h-1z M54,35h1v1h-1z M58,35h1v1h-1z M59,35h1v1h-1z M60,35h1v1h-1z M61,35h1v1h-1z M62,35h1v1h-1z M11,36h1v1h-1z M12,36h1v1h-1z M14,36h1v1h-1z M16,36h1v1h-1z M18,36h1v1h-1z M20,36h1v1h-1z M21,36h1v1h-1z M22,36h1v1h-1z M25,36h1v1h-1z M27,36h1v1h-1z M28,36h1v1h-1z M30,36h1v1h-1z M31,36h1v1h-1z M34,36h1v1h-1z M36,36h1v1h-1z M38,36h1v1h-1z M39,36h1v1h-1z M40,36h1v1h-1z M43,36h1v1h-1z M44,36h1v1h-1z M45,36h1v1h-1z M47,36h1v1h-1z M48,36h1v1h-1z M49,36h1v1h-1z M50,36h1v1h-1z M51,36h1v1h-1z M53,36h1v1h-1z M54,36h1v1h-1z M56,36h1v1h-1z M58,36h1v1h-1z M60,36h1v1h-1z M61,36h1v1h-1z M10,37h1v1h-1z M11,37h1v1h-1z M13,37h1v1h-1z M14,37h1v1h-1z M18,37h1v1h-1z M20,37h1v1h-1z M22,37h1v1h-1z M23,37h1v1h-1z M27,37h1v1h-1z M28,37h1v1h-1z M29,37h1v1h-1z M30,37h1v1h-1z M33,37h1v1h-1z M34,37h1v1h-1z M38,37h1v1h-1z M43,37h1v1h-1z M46,37h1v1h-1z M49,37h1v1h-1z M50,37h1v1h-1z M52,37h1v1h-1z M54,37h1v1h-1z M58,37h1v1h-1z M59,37h1v1h-1z M60,37h1v1h-1z M62,37h1v1h-1z M10,38h1v1h-1z M11,38h1v1h-1z M12,38h1v1h-1z M13,38h1v1h-1z M14,38h1v1h-1z M15,38h1v1h-1z M16,38h1v1h-1z M17,38h1v1h-1z M18,38h1v1h-1z M21,38h1v1h-1z M26,38h1v1h-1z M28,38h1v1h-1z M30,38h1v1h-1z M34,38h1v1h-1z M35,38h1v1h-1z M36,38h1v1h-1z M37,38h1v1h-1z M38,38h1v1h-1z M40,38h1v1h-1z M41,38h1v1h-1z M42,38h1v1h-1z M44,38h1v1h-1z M45,38h1v1h-1z M46,38h1v1h-1z M47,38h1v1h-1z M48,38h1v1h-1z M49,38h1v1h-1z M51,38h1v1h-1z M52,38h1v1h-1z M54,38h1v1h-1z M55,38h1v1h-1z M56,38h1v1h-1z M57,38h1v1h-1z M58,38h1v1h-1z M12,39h1v1h-1z M14,39h1v1h-1z M15,39h1v1h-1z M17,39h1v1h-1z M19,39h1v1h-1z M21,39h1v1h-1z M22,39h1v1h-1z M24,39h1v1h-1z M26,39h1v1h-1z M28,39h1v1h-1z M29,39h1v1h-1z M30,39h1v1h-1z M32,39h1v1h-1z M33,39h1v1h-1z M37,39h1v1h-1z M41,39h1v1h-1z M44,39h1v1h-1z M45,39h1v1h-1z M47,39h1v1h-1z M52,39h1v1h-1z M54,39h1v1h-1z M55,39h1v1h-1z M57,39h1v1h-1z M58,39h1v1h-1z M60,39h1v1h-1z M62,39h1v1h-1z M10,40h1v1h-1z M12,40h1v1h-1z M13,40h1v1h-1z M15,40h1v1h-1z M16,40h1v1h-1z M19,40h1v1h-1z M21,40h1v1h-1z M24,40h1v1h-1z M26,40h1v1h-1z M27,40h1v1h-1z M28,40h1v1h-1z M29,40h1v1h-1z M31,40h1v1h-1z M32,40h1v1h-1z M33,40h1v1h-1z M35,40h1v1h-1z M37,40h1v1h-1z M38,40h1v1h-1z M39,40h1v1h-1z M41,40h1v1h-1z M46,40h1v1h-1z M48,40h1v1h-1z M49,40h1v1h-1z M50,40h1v1h-1z M51,40h1v1h-1z M52,40h1v1h-1z M53,40h1v1h-1z M57,40h1v1h-1z M58,40h1v1h-1z M10,41h1v1h-1z M11,41h1v1h-1z M13,41h1v1h-1z M15,41h1v1h-1z M17,41h1v1h-1z M18,41h1v1h-1z M20,41h1v1h-1z M21,41h1v1h-1z M23,41h1v1h-1z M25,41h1v1h-1z M26,41h1v1h-1z M28,41h1v1h-1z M31,41h1v1h-1z M32,41h1v1h-1z M34,41h1v1h-1z M35,41h1v1h-1z M36,41h1v1h-1z M41,41h1v1h-1z M47,41h1v1h-1z M50,41h1v1h-1z M54,41h1v1h-1z M55,41h1v1h-1z M56,41h1v1h-1z M58,41h1v1h-1z M59,41h1v1h-1z M61,41h1v1h-1z M10,42h1v1h-1z M14,42h1v1h-1z M15,42h1v1h-1z M16,42h1v1h-1z M18,42h1v1h-1z M20,42h1v1h-1z M21,42h1v1h-1z M22,42h1v1h-1z M23,42h1v1h-1z M24,42h1v1h-1z M27,42h1v1h-1z M35,42h1v1h-1z M36,42h1v1h-1z M38,42h1v1h-1z M39,42h1v1h-1z M40,42h1v1h-1z M42,42h1v1h-1z M43,42h1v1h-1z M45,42h1v1h-1z M46,42h1v1h-1z M49,42h1v1h-1z M54,42h1v1h-1z M55,42h1v1h-1z M57,42h1v1h-1z M59,42h1v1h-1z M60,42h1v1h-1z M61,42h1v1h-1z M62,42h1v1h-1z M15,43h1v1h-1z M18,43h1v1h-1z M19,43h1v1h-1z M24,43h1v1h-1z M25,43h1v1h-1z M26,43h1v1h-1z M27,43h1v1h-1z M28,43h1v1h-1z M29,43h1v1h-1z M31,43h1v1h-1z M35,43h1v1h-1z M38,43h1v1h-1z M39,43h1v1h-1z M40,43h1v1h-1z M41,43h1v1h-1z M42,43h1v1h-1z M47,43h1v1h-1z M49,43h1v1h-1z M50,43h1v1h-1z M52,43h1v1h-1z M53,43h1v1h-1z M54,43h1v1h-1z M57,43h1v1h-1z M58,43h1v1h-1z M60,43h1v1h-1z M62,43h1v1h-1z M12,44h1v1h-1z M13,44h1v1h-1z M16,44h1v1h-1z M18,44h1v1h-1z M19,44h1v1h-1z M21,44h1v1h-1z M22,44h1v1h-1z M24,44h1v1h-1z M25,44h1v1h-1z M26,44h1v1h-1z M27,44h1v1h-1z M28,44h1v1h-1z M30,44h1v1h-1z M31,44h1v1h-1z M38,44h1v1h-1z M39,44h1v1h-1z M40,44h1v1h-1z M41,44h1v1h-1z M43,44h1v1h-1z M46,44h1v1h-1z M48,44h1v1h-1z M57,44h1v1h-1z M59,44h1v1h-1z M10,45h1v1h-1z M11,45h1v1h-1z M13,45h1v1h-1z M14,45h1v1h-1z M15,45h1v1h-1z M19,45h1v1h-1z M20,45h1v1h-1z M23,45h1v1h-1z M25,45h1v1h-1z M26,45h1v1h-1z M31,45h1v1h-1z M33,45h1v1h-1z M37,45h1v1h-1z M41,45h1v1h-1z M43,45h1v1h-1z M44,45h1v1h-1z M45,45h1v1h-1z M47,45h1v1h-1z M48,45h1v1h-1z M49,45h1v1h-1z M50,45h1v1h-1z M52,45h1v1h-1z M53,45h1v1h-1z M54,45h1v1h-1z M55,45h1v1h-1z M56,45h1v1h-1z M57,45h1v1h-1z M59,45h1v1h-1z M62,45h1v1h-1z M10,46h1v1h-1z M11,46h1v1h-1z M12,46h1v1h-1z M13,46h1v1h-1z M14,46h1v1h-1z M16,46h1v1h-1z M17,46h1v1h-1z M20,46h1v1h-1z M21,46h1v1h-1z M22,46h1v1h-1z M23,46h1v1h-1z M24,46h1v1h-1z M25,46h1v1h-1z M27,46h1v1h-1z M28,46h1v1h-1z M32,46h1v1h-1z M34,46h1v1h-1z M35,46h1v1h-1z M36,46h1v1h-1z M37,46h1v1h-1z M39,46h1v1h-1z M40,46h1v1h-1z M41,46h1v1h-1z M42,46h1v1h-1z M44,46h1v1h-1z M45,46h1v1h-1z M46,46h1v1h-1z M49,46h1v1h-1z M54,46h1v1h-1z M56,46h1v1h-1z M57,46h1v1h-1z M60,46h1v1h-1z M61,46h1v1h-1z M12,47h1v1h-1z M13,47h1v1h-1z M15,47h1v1h-1z M20,47h1v1h-1z M21,47h1v1h-1z M22,47h1v1h-1z M25,47h1v1h-1z M26,47h1v1h-1z M27,47h1v1h-1z M28,47h1v1h-1z M29,47h1v1h-1z M32,47h1v1h-1z M33,47h1v1h-1z M36,47h1v1h-1z M38,47h1v1h-1z M42,47h1v1h-1z M43,47h1v1h-1z M45,47h1v1h-1z M46,47h1v1h-1z M47,47h1v1h-1z M51,47h1v1h-1z M52,47h1v1h-1z M53,47h1v1h-1z M55,47h1v1h-1z M57,47h1v1h-1z M58,47h1v1h-1z M59,47h1v1h-1z M61,47h1v1h-1z M10,48h1v1h-1z M11,48h1v1h-1z M13,48h1v1h-1z M16,48h1v1h-1z M17,48h1v1h-1z M18,48h1v1h-1z M19,48h1v1h-1z M20,48h1v1h-1z M22,48h1v1h-1z M23,48h1v1h-1z M24,48h1v1h-1z M29,48h1v1h-1z M30,48h1v1h-1z M33,48h1v1h-1z M34,48h1v1h-1z M35,48h1v1h-1z M36,48h1v1h-1z M37,48h1v1h-1z M42,48h1v1h-1z M43,48h1v1h-1z M44,48h1v1h-1z M48,48h1v1h-1z M54,48h1v1h-1z M58,48h1v1h-1z M59,48h1v1h-1z M60,48h1v1h-1z M14,49h1v1h-1z M15,49h1v1h-1z M17,49h1v1h-1z M21,49h1v1h-1z M22,49h1v1h-1z M24,49h1v1h-1z M29,49h1v1h-1z M30,49h1v1h-1z M32,49h1v1h-1z M33,49h1v1h-1z M34,49h1v1h-1z M35,49h1v1h-1z M36,49h1v1h-1z M37,49h1v1h-1z M38,49h1v1h-1z M40,49h1v1h-1z M41,49h1v1h-1z M43,49h1v1h-1z M47,49h1v1h-1z M49,49h1v1h-1z M50,49h1v1h-1z M51,49h1v1h-1z M53,49h1v1h-1z M54,49h1v1h-1z M55,49h1v1h-1z M56,49h1v1h-1z M57,49h1v1h-1z M58,49h1v1h-1z M59,49h1v1h-1z M61,49h1v1h-1z M14,50h1v1h-1z M16,50h1v1h-1z M20,50h1v1h-1z M21,50h1v1h-1z M22,50h1v1h-1z M23,50h1v1h-1z M25,50h1v1h-1z M26,50h1v1h-1z M27,50h1v1h-1z M30,50h1v1h-1z M32,50h1v1h-1z M33,50h1v1h-1z M34,50h1v1h-1z M35,50h1v1h-1z M36,50h1v1h-1z M37,50h1v1h-1z M38,50h1v1h-1z M39,50h1v1h-1z M41,50h1v1h-1z M44,50h1v1h-1z M45,50h1v1h-1z M46,50h1v1h-1z M48,50h1v1h-1z M49,50h1v1h-1z M51,50h1v1h-1z M55,50h1v1h-1z M57,50h1v1h-1z M58,50h1v1h-1z M60,50h1v1h-1z M13,51h1v1h-1z M14,51h1v1h-1z M15,51h1v1h-1z M17,51h1v1h-1z M18,51h1v1h-1z M22,51h1v1h-1z M23,51h1v1h-1z M25,51h1v1h-1z M26,51h1v1h-1z M27,51h1v1h-1z M28,51h1v1h-1z M34,51h1v1h-1z M37,51h1v1h-1z M38,51h1v1h-1z M40,51h1v1h-1z M41,51h1v1h-1z M43,51h1v1h-1z M44,51h1v1h-1z M47,51h1v1h-1z M50,51h1v1h-1z M51,51h1v1h-1z M52,51h1v1h-1z M54,51h1v1h-1z M56,51h1v1h-1z M58,51h1v1h-1z M59,51h1v1h-1z M61,51h1v1h-1z M62,51h1v1h-1z M10,52h1v1h-1z M11,52h1v1h-1z M13,52h1v1h-1z M14,52h1v1h-1z M15,52h1v1h-1z M16,52h1v1h-1z M18,52h1v1h-1z M20,52h1v1h-1z M21,52h1v1h-1z M23,52h1v1h-1z M30,52h1v1h-1z M33,52h1v1h-1z M39,52h1v1h-1z M41,52h1v1h-1z M42,52h1v1h-1z M45,52h1v1h-1z M46,52h1v1h-1z M48,52h1v1h-1z M50,52h1v1h-1z M51,52h1v1h-1z M54,52h1v1h-1z M55,52h1v1h-1z M57,52h1v1h-1z M58,52h1v1h-1z M61,52h1v1h-1z M11,53h1v1h-1z M12,53h1v1h-1z M17,53h1v1h-1z M18,53h1v1h-1z M20,53h1v1h-1z M21,53h1v1h-1z M22,53h1v1h-1z M23,53h1v1h-1z M24,53h1v1h-1z M29,53h1v1h-1z M30,53h1v1h-1z M33,53h1v1h-1z M34,53h1v1h-1z M35,53h1v1h-1z M37,53h1v1h-1z M41,53h1v1h-1z M43,53h1v1h-1z M44,53h1v1h-1z M47,53h1v1h-1z M49,53h1v1h-1z M53,53h1v1h-1z M54,53h1v1h-1z M55,53h1v1h-1z M56,53h1v1h-1z M58,53h1v1h-1z M13,54h1v1h-1z M16,54h1v1h-1z M18,54h1v1h-1z M20,54h1v1h-1z M21,54h1v1h-1z M25,54h1v1h-1z M27,54h1v1h-1z M29,54h1v1h-1z M30,54h1v1h-1z M32,54h1v1h-1z M34,54h1v1h-1z M35,54h1v1h-1z M36,54h1v1h-1z M37,54h1v1h-1z M38,54h1v1h-1z M39,54h1v1h-1z M43,54h1v1h-1z M44,54h1v1h-1z M45,54h1v1h-1z M46,54h1v1h-1z M47,54h1v1h-1z M50,54h1v1h-1z M54,54h1v1h-1z M55,54h1v1h-1z M56,54h1v1h-1z M57,54h1v1h-1z M58,54h1v1h-1z M59,54h1v1h-1z M60,54h1v1h-1z M62,54h1v1h-1z M18,55h1v1h-1z M19,55h1v1h-1z M21,55h1v1h-1z M26,55h1v1h-1z M27,55h1v1h-1z M33,55h1v1h-1z M34,55h1v1h-1z M38,55h1v1h-1z M39,55h1v1h-1z M40,55h1v1h-1z M43,55h1v1h-1z M44,55h1v1h-1z M45,55h1v1h-1z M47,55h1v1h-1z M49,55h1v1h-1z M50,55h1v1h-1z M51,55h1v1h-1z M52,55h1v1h-1z M54,55h1v1h-1z M58,55h1v1h-1z M59,55h1v1h-1z M60,55h1v1h-1z M61,55h1v1h-1z M62,55h1v1h-1z M10,56h1v1h-1z M11,56h1v1h-1z M12,56h1v1h-1z M13,56h1v1h-1z M14,56h1v1h-1z M15,56h1v1h-1z M16,56h1v1h-1z M20,56h1v1h-1z M24,56h1v1h-1z M28,56h1v1h-1z M29,56h1v1h-1z M30,56h1v1h-1z M33,56h1v1h-1z M34,56h1v1h-1z M36,56h1v1h-1z M38,56h1v1h-1z M39,56h1v1h-1z M40,56h1v1h-1z M42,56h1v1h-1z M44,56h1v1h-1z M45,56h1v1h-1z M50,56h1v1h-1z M52,56h1v1h-1z M54,56h1v1h-1z M56,56h1v1h-1z M58,56h1v1h-1z M59,56h1v1h-1z M61,56h1v1h-1z M10,57h1v1h-1z M16,57h1v1h-1z M20,57h1v1h-1z M25,57h1v1h-1z M26,57h1v1h-1z M27,57h1v1h-1z M28,57h1v1h-1z M30,57h1v1h-1z M34,57h1v1h-1z M38,57h1v1h-1z M39,57h1v1h-1z M40,57h1v1h-1z M42,57h1v1h-1z M45,57h1v1h-1z M47,57h1v1h-1z M50,57h1v1h-1z M51,57h1v1h-1z M52,57h1v1h-1z M54,57h1v1h-1z M58,57h1v1h-1z M59,57h1v1h-1z M62,57h1v1h-1z M10,58h1v1h-1z M12,58h1v1h-1z M13,58h1v1h-1z M14,58h1v1h-1z M16,58h1v1h-1z M18,58h1v1h-1z M19,58h1v1h-1z M20,58h1v1h-1z M21,58h1v1h-1z M22,58h1v1h-1z M23,58h1v1h-1z M24,58h1v1h-1z M29,58h1v1h-1z M34,58h1v1h-1z M35,58h1v1h-1z M36,58h1v1h-1z M37,58h1v1h-1z M38,58h1v1h-1z M40,58h1v1h-1z M41,58h1v1h-1z M44,58h1v1h-1z M45,58h1v1h-1z M46,58h1v1h-1z M49,58h1v1h-1z M51,58h1v1h-1z M54,58h1v1h-1z M55,58h1v1h-1z M56,58h1v1h-1z M57,58h1v1h-1z M58,58h1v1h-1z M10,59h1v1h-1z M12,59h1v1h-1z M13,59h1v1h-1z M14,59h1v1h-1z M16,59h1v1h-1z M18,59h1v1h-1z M21,59h1v1h-1z M23,59h1v1h-1z M24,59h1v1h-1z M25,59h1v1h-1z M27,59h1v1h-1z M28,59h1v1h-1z M32,59h1v1h-1z M34,59h1v1h-1z M35,59h1v1h-1z M36,59h1v1h-1z M38,59h1v1h-1z M39,59h1v1h-1z M40,59h1v1h-1z M44,59h1v1h-1z M45,59h1v1h-1z M51,59h1v1h-1z M52,59h1v1h-1z M53,59h1v1h-1z M60,59h1v1h-1z M10,60h1v1h-1z M12,60h1v1h-1z M13,60h1v1h-1z M14,60h1v1h-1z M16,60h1v1h-1z M18,60h1v1h-1z M20,60h1v1h-1z M24,60h1v1h-1z M25,60h1v1h-1z M27,60h1v1h-1z M28,60h1v1h-1z M30,60h1v1h-1z M32,60h1v1h-1z M39,60h1v1h-1z M40,60h1v1h-1z M41,60h1v1h-1z M43,60h1v1h-1z M44,60h1v1h-1z M45,60h1v1h-1z M46,60h1v1h-1z M47,60h1v1h-1z M48,60h1v1h-1z M50,60h1v1h-1z M55,60h1v1h-1z M57,60h1v1h-1z M58,60h1v1h-1z M59,60h1v1h-1z M10,61h1v1h-1z M16,61h1v1h-1z M20,61h1v1h-1z M23,61h1v1h-1z M24,61h1v1h-1z M26,61h1v1h-1z M29,61h1v1h-1z M30,61h1v1h-1z M31,61h1v1h-1z M34,61h1v1h-1z M36,61h1v1h-1z M37,61h1v1h-1z M38,61h1v1h-1z M40,61h1v1h-1z M41,61h1v1h-1z M42,61h1v1h-1z M44,61h1v1h-1z M45,61h1v1h-1z M46,61h1v1h-1z M49,61h1v1h-1z M50,61h1v1h-1z M53,61h1v1h-1z M57,61h1v1h-1z M58,61h1v1h-1z M59,61h1v1h-1z M61,61h1v1h-1z M10,62h1v1h-1z M11,62h1v1h-1z M12,62h1v1h-1z M13,62h1v1h-1z M14,62h1v1h-1z M15,62h1v1h-1z M16,62h1v1h-1z M19,62h1v1h-1z M20,62h1v1h-1z M26,62h1v1h-1z M28,62h1v1h-1z M30,62h1v1h-1z M31,62h1v1h-1z M32,62h1v1h-1z M33,62h1v1h-1z M36,62h1v1h-1z M37,62h1v1h-1z M38,62h1v1h-1z M42,62h1v1h-1z M43,62h1v1h-1z M44,62h1v1h-1z M46,62h1v1h-1z M47,62h1v1h-1z M51,62h1v1h-1z M52,62h1v1h-1z M55,62h1v1h-1z M56,62h1v1h-1z M59,62h1v1h-1z" fill="#000000"/>
</svg>
