<?xml version="1.0" encoding="UTF-8"?>
<!DOCTYPE svg PUBLIC "-//W3C//DTD SVG 1.1//EN" "http://www.w3.org/Graphics/SVG/1.1/DTD/svg11.dtd">
<svg xmlns="http://www.w3.org/2000/svg" version="1.1" viewBox="0 0 41 41" stroke="none">
	<rect width="100%" height="100%" fill="#FFFFFF"/>
	<path d="M10,10h1v1h-1zM10,11h1v1h-1zM10,12h1v1h-1zM10,13h1v1h-1zM10,14h1v1h-1zM10,15h1v1h-1zM10,16h1v1h-1zM10,18h1v1h-1zM10,22h1v1h-1zM10,24h1v1h-1zM10,25h1v1h-1zM10,26h1v1h-1zM10,27h1v1h-1zM10,28h1v1h-1zM10,29h1v1h-1zM10,30h1v1h-1zM11,16h1v1h-1zM11,21h1v1h-1zM11,22h1v1h-1zM11,30h1v1h-1zM12,10h1v1h-1zM12,12h1v1h-1zM12,13h1v1h-1zM12,14h1v1h-1zM12,16h1v1h-1zM12,18h1v1h-1zM12,21h1v1h-1zM12,24h1v1h-1zM12,26h1v1h-1zM12,27h1v1h-1zM12,28h1v1h-1zM12,30h1v1h-1zM13,10h1v1h-1zM13,12h1v1h-1zM13,13h1v1h-1zM13,14h1v1h-1zM13,16h1v1h-1zM13,18h1v1h-1zM13,19h1v1h-1zM13,24h1v1h-1zM13,26h1v1h-1zM13,27h1v1h-1zM13,28h1v1h-1zM13,30h1v1h-1zM14,10h1v1h-1zM14,12h1v1h-1zM14,13h1v1h-1zM14,14h1v1h-1zM14,16h1v1h-1zM14,18h1v1h-1zM14,19h1v1h-1zM14,22h1v1h-1zM14,24h1v1h-1zM14,26h1v1h-1zM14,27h1v1h-1zM14,28h1v1h-1zM14,30h1v1h-1zM15,10h1v1h-1zM15,16h1v1h-1zM15,21h1v1h-1zM15,22h1v1h-1zM15,24h1v1h-1zM15,30h1v1h-1zM16,10h1v1h-1zM16,11h1v1h-1zM16,12h1v1h-1zM16,13h1v1h-1zM16,14h1v1h-1zM16,15h1v1h-1zM16,16h1v1h-1zM16,18h1v1h-1zM16,22h1v1h-1zM16,24h1v1h-1zM16,25h1v1h-1zM16,26h1v1h-1zM16,27h1v1h-1zM16,28h1v1h-1zM16,29h1v1h-1zM16,30h1v1h-1zM17,19h1v1h-1zM18,12h1v1h-1zM18,13h1v1h-1zM18,14h1v1h-1zM18,15h1v1h-1zM18,17h1v1h-1zM18,19h1v1h-1zM18,20h1v1h-1zM18,22h1v1h-1zM18,23h1v1h-1zM18,25h1v1h-1zM18,26h1v1h-1zM18,27h1v1h-1zM18,28h1v1h-1zM18,30h1v1h-1zM19,14h1v1h-1zM19,15h1v1h-1zM19,20h1v1h-1zM19,28h1v1h-1zM19,30h1v1h-1zM20,12h1v1h-1zM20,15h1v1h-1zM20,16h1v1h-1zM20,17h1v1h-1zM20,18h1v1h-1zM20,20h1v1h-1zM20,21h1v1h-1zM20,24h1v1h-1zM20,25h1v1h-1zM20,27h1v1h-1zM20,28h1v1h-1zM20,29h1v1h-1zM21,11h1v1h-1zM21,12h1v1h-1zM21,15h1v1h-1zM21,18h1v1h-1zM21,21h1v1h-1zM21,30h1v1h-1zM22,10h1v1h-1zM22,12h1v1h-1zM22,14h1v1h-1zM22,16h1v1h-1zM22,19h1v1h-1zM22,20h1v1h-1zM22,21h1v1h-1zM22,24h1v1h-1zM22,26h1v1h-1zM22,28h1v1h-1zM22,29h1v1h-1zM23,19h1v1h-1zM23,20h1v1h-1zM23,21h1v1h-1zM23,23h1v1h-1zM23,24h1v1h-1zM23,26h1v1h-1zM23,29h1v1h-1zM24,10h1v1h-1zM24,11h1v1h-1zM24,12h1v1h-1zM24,13h1v1h-1zM24,14h1v1h-1zM24,15h1v1h-1zM24,16h1v1h-1zM24,22h1v1h-1zM24,23h1v1h-1zM24,24h1v1h-1zM24,26h1v1h-1zM24,28h1v1h-1zM24,30h1v1h-1zM25,16h1v1h-1zM25,18h1v1h-1zM25,21h1v1h-1zM25,22h1v1h-1zM25,23h1v1h-1zM25,24h1v1h-1zM25,25h1v1h-1zM26,10h1v1h-1zM26,12h1v1h-1zM26,13h1v1h-1zM26,14h1v1h-1zM26,16h1v1h-1zM26,18h1v1h-1zM26,19h1v1h-1zM26,26h1v1h-1zM26,27h1v1h-1zM26,29h1v1h-1zM26,30h1v1h-1zM27,10h1v1h-1zM27,12h1v1h-1zM27,13h1v1h-1zM27,14h1v1h-1zM27,16h1v1h-1zM27,18h1v1h-1zM27,19h1v1h-1zM27,20h1v1h-1zM27,21h1v1h-1zM27,23h1v1h-1zM27,27h1v1h-1zM27,29h1v1h-1zM28,10h1v1h-1zM28,12h1v1h-1zM28,13h1v1h-1zM28,14h1v1h-1zM28,16h1v1h-1zM28,18h1v1h-1zM28,19h1v1h-1zM28,20h1v1h-1zM28,21h1v1h-1zM28,24h1v1h-1zM28,25h1v1h-1zM28,28h1v1h-1zM28,29h1v1h-1zM29,10h1v1h-1zM29,16h1v1h-1zM29,20h1v1h-1zM29,24h1v1h-1zM29,25h1v1h-1zM29,26h1v1h-1zM29,30h1v1h-1zM30,10h1v1h-1zM30,11h1v1h-1zM30,12h1v1h-1zM30,13h1v1h-1zM30,14h1v1h-1zM30,15h1v1h-1zM30,16h1v1h-1zM30,19h1v1h-1zM30,22h1v1h-1zM30,26h1v1h-1z" fill="#000000"/>
</svg>
