<?xml version="1.0" encoding="UTF-8"?>
<!DOCTYPE svg PUBLIC "-//W3C//DTD SVG 1.1//EN" "http://www.w3.org/Graphics/SVG/1.1/DTD/svg11.dtd">
<svg xmlns="http://www.w3.org/2000/svg" version="1.1" viewBox="0 0 73 73" stroke="none">
	<rect width="100%" height="100%" fill="#FFFFFF"/>
	<path d="M10,10h1v1h-1zM10,11h1v1h-1zM10,12h1v1h-1zM10,13h1v1h-1zM10,14h1v1h-1zM10,15h1v1h-1zM10,16h1v1h-1zM10,19h1v1h-1zM10,20h1v1h-1zM10,21h1v1h-1zM10,22h1v1h-1zM10,23h1v1h-1zM10,27h1v1h-1zM10,29h1v1h-1zM10,34h1v1h-1zM10,35h1v1h-1zM10,37h1v1h-1zM10,38h1v1h-1zM10,40h1v1h-1zM10,41h1v1h-1zM10,42h1v1h-1zM10,45h1v1h-1zM10,46h1v1h-1zM10,48h1v1h-1zM10,52h1v1h-1zM10,56h1v1h-1zM10,57h1v1h-1zM10,58h1v1h-1zM10,59h1v1h-1zM10,60h1v1h-1zM10,61h1v1h-1zM10,62h1v1h-1zM11,16h1v1h-1zM11,23h1v1h-1zM11,24h1v1h-1zM11,27h1v1h-1zM11,28h1v1h-1zM11,29h1v1h-1zM11,30h1v1h-1zM11,32h1v1h-1zM11,36h1v1h-1zM11,37h1v1h-1zM11,38h1v1h-1zM11,41h1v1h-1zM11,45h1v1h-1zM11,46h1v1h-1zM11,48h1v1h-1zM11,52h1v1h-1zM11,53h1v1h-1zM11,62h1v1h-1zM12,10h1v1h-1zM12,12h1v1h-1zM12,13h1v1h-1zM12,14h1v1h-1zM12,16h1v1h-1zM12,18h1v1h-1zM12,19h1v1h-1zM12,22h1v1h-1zM12,23h1v1h-1zM12,27h1v1h-1zM12,28h1v1h-1zM12,29h1v1h-1zM12,30h1v1h-1zM12,32h1v1h-1zM12,33h1v1h-1zM12,34h1v1h-1zM12,38h1v1h-1zM12,40h1v1h-1zM12,46h1v1h-1zM12,47h1v1h-1zM12,53h1v1h-1zM12,56h1v1h-1zM12,58h1v1h-1zM12,59h1v1h-1zM12,60h1v1h-1zM12,62h1v1h-1zM13,10h1v1h-1zM13,12h1v1h-1zM13,13h1v1h-1zM13,14h1v1h-1zM13,16h1v1h-1zM13,18h1v1h-1zM13,19h1v1h-1zM13,24h1v1h-1zM13,25h1v1h-1zM13,34h1v1h-1zM13,35h1v1h-1zM13,37h1v1h-1zM13,38h1v1h-1zM13,40h1v1h-1zM13,41h1v1h-1zM13,44h1v1h-1zM13,45h1v1h-1zM13,46h1v1h-1zM13,47h1v1h-1zM13,48h1v1h-1zM13,51h1v1h-1zM13,52h1v1h-1zM13,56h1v1h-1zM13,58h1v1h-1zM13,59h1v1h-1zM13,60h1v1h-1zM13,62h1v1h-1zM14,10h1v1h-1zM14,12h1v1h-1zM14,13h1v1h-1zM14,14h1v1h-1zM14,16h1v1h-1zM14,18h1v1h-1zM14,19h1v1h-1zM14,21h1v1h-1zM14,22h1v1h-1zM14,26h1v1h-1zM14,27h1v1h-1zM14,32h1v1h-1zM14,34h1v1h-1zM14,35h1v1h-1zM14,36h1v1h-1zM14,37h1v1h-1zM14,38h1v1h-1zM14,39h1v1h-1zM14,49h1v1h-1zM14,50h1v1h-1zM14,51h1v1h-1zM14,52h1v1h-1zM14,56h1v1h-1zM14,58h1v1h-1zM14,59h1v1h-1zM14,60h1v1h-1zM14,62h1v1h-1zM15,10h1v1h-1zM15,16h1v1h-1zM15,19h1v1h-1zM15,22h1v1h-1zM15,27h1v1h-1zM15,28h1v1h-1zM15,29h1v1h-1zM15,38h1v1h-1zM15,39h1v1h-1zM15,40h1v1h-1zM15,41h1v1h-1zM15,42h1v1h-1zM15,43h1v1h-1zM15,45h1v1h-1zM15,47h1v1h-1zM15,51h1v1h-1zM15,52h1v1h-1zM15,56h1v1h-1zM15,62h1v1h-1zM16,10h1v1h-1zM16,11h1v1h-1zM16,12h1v1h-1zM16,13h1v1h-1zM16,14h1v1h-1zM16,15h1v1h-1zM16,16h1v1h-1zM16,18h1v1h-1zM16,20h1v1h-1zM16,22h1v1h-1zM16,24h1v1h-1zM16,30h1v1h-1zM16,32h1v1h-1zM16,34h1v1h-1zM16,36h1v1h-1zM16,48h1v1h-1zM16,52h1v1h-1zM16,54h1v1h-1zM16,56h1v1h-1zM16,57h1v1h-1zM16,58h1v1h-1zM16,59h1v1h-1zM16,60h1v1h-1zM16,61h1v1h-1zM16,62h1v1h-1zM17,22h1v1h-1zM17,23h1v1h-1zM17,24h1v1h-1zM17,25h1v1h-1zM17,26h1v1h-1zM17,30h1v1h-1zM17,32h1v1h-1zM17,33h1v1h-1zM17,34h1v1h-1zM17,38h1v1h-1zM17,41h1v1h-1zM17,46h1v1h-1zM17,48h1v1h-1zM17,49h1v1h-1zM17,53h1v1h-1zM18,10h1v1h-1zM18,11h1v1h-1zM18,12h1v1h-1zM18,15h1v1h-1zM18,17h1v1h-1zM18,18h1v1h-1zM18,20h1v1h-1zM18,25h1v1h-1zM18,26h1v1h-1zM18,33h1v1h-1zM18,34h1v1h-1zM18,36h1v1h-1zM18,37h1v1h-1zM18,38h1v1h-1zM18,41h1v1h-1zM18,42h1v1h-1zM18,43h1v1h-1zM18,44h1v1h-1zM18,51h1v1h-1zM18,52h1v1h-1zM18,53h1v1h-1zM18,54h1v1h-1zM18,58h1v1h-1zM18,59h1v1h-1zM18,60h1v1h-1zM19,10h1v1h-1zM19,11h1v1h-1zM19,14h1v1h-1zM19,15h1v1h-1zM19,17h1v1h-1zM19,18h1v1h-1zM19,21h1v1h-1zM19,22h1v1h-1zM19,27h1v1h-1zM19,30h1v1h-1zM19,31h1v1h-1zM19,32h1v1h-1zM19,33h1v1h-1zM19,34h1v1h-1zM19,43h1v1h-1zM19,44h1v1h-1zM19,45h1v1h-1zM19,48h1v1h-1zM19,62h1v1h-1zM20,19h1v1h-1zM20,22h1v1h-1zM20,23h1v1h-1zM20,24h1v1h-1zM20,25h1v1h-1zM20,26h1v1h-1zM20,27h1v1h-1zM20,35h1v1h-1zM20,36h1v1h-1zM20,45h1v1h-1zM20,46h1v1h-1zM20,47h1v1h-1zM20,48h1v1h-1zM20,50h1v1h-1zM20,53h1v1h-1zM20,54h1v1h-1zM20,57h1v1h-1zM20,58h1v1h-1zM20,60h1v1h-1zM20,61h1v1h-1zM20,62h1v1h-1zM21,10h1v1h-1zM21,13h1v1h-1zM21,14h1v1h-1zM21,17h1v1h-1zM21,18h1v1h-1zM21,19h1v1h-1zM21,20h1v1h-1zM21,30h1v1h-1zM21,32h1v1h-1zM21,35h1v1h-1zM21,36h1v1h-1zM21,39h1v1h-1zM21,40h1v1h-1zM21,41h1v1h-1zM21,42h1v1h-1zM21,49h1v1h-1zM21,50h1v1h-1zM21,53h1v1h-1zM21,54h1v1h-1zM21,55h1v1h-1zM21,58h1v1h-1zM21,59h1v1h-1zM22,10h1v1h-1zM22,14h1v1h-1zM22,21h1v1h-1zM22,22h1v1h-1zM22,23h1v1h-1zM22,24h1v1h-1zM22,25h1v1h-1zM22,26h1v1h-1zM22,28h1v1h-1zM22,34h1v1h-1zM22,35h1v1h-1zM22,36h1v1h-1zM22,37h1v1h-1zM22,42h1v1h-1zM22,44h1v1h-1zM22,46h1v1h-1zM22,48h1v1h-1zM22,49h1v1h-1zM22,50h1v1h-1zM22,51h1v1h-1zM22,58h1v1h-1zM23,10h1v1h-1zM23,12h1v1h-1zM23,13h1v1h-1zM23,14h1v1h-1zM23,27h1v1h-1zM23,28h1v1h-1zM23,29h1v1h-1zM23,30h1v1h-1zM23,31h1v1h-1zM23,37h1v1h-1zM23,42h1v1h-1zM23,46h1v1h-1zM23,50h1v1h-1zM23,51h1v1h-1zM23,52h1v1h-1zM23,53h1v1h-1zM23,58h1v1h-1zM23,59h1v1h-1zM23,61h1v1h-1zM24,10h1v1h-1zM24,16h1v1h-1zM24,17h1v1h-1zM24,18h1v1h-1zM24,25h1v1h-1zM24,31h1v1h-1zM24,33h1v1h-1zM24,39h1v1h-1zM24,40h1v1h-1zM24,42h1v1h-1zM24,43h1v1h-1zM24,44h1v1h-1zM24,46h1v1h-1zM24,53h1v1h-1zM24,56h1v1h-1zM24,58h1v1h-1zM24,59h1v1h-1zM24,60h1v1h-1zM24,61h1v1h-1zM25,10h1v1h-1zM25,11h1v1h-1zM25,14h1v1h-1zM25,17h1v1h-1zM25,18h1v1h-1zM25,19h1v1h-1zM25,20h1v1h-1zM25,28h1v1h-1zM25,29h1v1h-1zM25,32h1v1h-1zM25,33h1v1h-1zM25,36h1v1h-1zM25,43h1v1h-1zM25,44h1v1h-1zM25,45h1v1h-1zM25,46h1v1h-1zM25,47h1v1h-1zM25,50h1v1h-1zM25,51h1v1h-1zM25,54h1v1h-1zM25,59h1v1h-1zM25,60h1v1h-1zM26,11h1v1h-1zM26,18h1v1h-1zM26,19h1v1h-1zM26,20h1v1h-1zM26,21h1v1h-1zM26,23h1v1h-1zM26,24h1v1h-1zM26,28h1v1h-1zM26,29h1v1h-1zM26,34h1v1h-1zM26,39h1v1h-1zM26,40h1v1h-1zM26,41h1v1h-1zM26,47h1v1h-1zM26,50h1v1h-1zM26,51h1v1h-1zM26,55h1v1h-1zM26,57h1v1h-1zM26,61h1v1h-1zM26,62h1v1h-1zM27,14h1v1h-1zM27,15h1v1h-1zM27,19h1v1h-1zM27,20h1v1h-1zM27,21h1v1h-1zM27,24h1v1h-1zM27,25h1v1h-1zM27,26h1v1h-1zM27,29h1v1h-1zM27,31h1v1h-1zM27,32h1v1h-1zM27,34h1v1h-1zM27,36h1v1h-1zM27,37h1v1h-1zM27,43h1v1h-1zM27,44h1v1h-1zM27,46h1v1h-1zM27,47h1v1h-1zM27,50h1v1h-1zM27,51h1v1h-1zM27,54h1v1h-1zM27,55h1v1h-1zM27,57h1v1h-1zM27,59h1v1h-1zM27,60h1v1h-1zM28,10h1v1h-1zM28,11h1v1h-1zM28,12h1v1h-1zM28,13h1v1h-1zM28,14h1v1h-1zM28,15h1v1h-1zM28,16h1v1h-1zM28,17h1v1h-1zM28,25h1v1h-1zM28,26h1v1h-1zM28,27h1v1h-1zM28,33h1v1h-1zM28,34h1v1h-1zM28,36h1v1h-1zM28,37h1v1h-1zM28,38h1v1h-1zM28,39h1v1h-1zM28,43h1v1h-1zM28,44h1v1h-1zM28,46h1v1h-1zM28,47h1v1h-1zM28,51h1v1h-1zM28,56h1v1h-1zM28,57h1v1h-1zM28,59h1v1h-1zM28,60h1v1h-1zM28,62h1v1h-1zM29,27h1v1h-1zM29,39h1v1h-1zM29,47h1v1h-1zM29,48h1v1h-1zM29,49h1v1h-1zM29,53h1v1h-1zM29,54h1v1h-1zM29,61h1v1h-1zM30,11h1v1h-1zM30,13h1v1h-1zM30,14h1v1h-1zM30,16h1v1h-1zM30,17h1v1h-1zM30,18h1v1h-1zM30,21h1v1h-1zM30,23h1v1h-1zM30,24h1v1h-1zM30,25h1v1h-1zM30,35h1v1h-1zM30,36h1v1h-1zM30,37h1v1h-1zM30,38h1v1h-1zM30,39h1v1h-1zM30,44h1v1h-1zM30,48h1v1h-1zM30,49h1v1h-1zM30,50h1v1h-1zM30,52h1v1h-1zM30,53h1v1h-1zM30,54h1v1h-1zM30,56h1v1h-1zM30,57h1v1h-1zM30,60h1v1h-1zM30,61h1v1h-1zM30,62h1v1h-1zM31,10h1v1h-1zM31,11h1v1h-1zM31,17h1v1h-1zM31,18h1v1h-1zM31,19h1v1h-1zM31,21h1v1h-1zM31,25h1v1h-1zM31,26h1v1h-1zM31,29h1v1h-1zM31,31h1v1h-1zM31,32h1v1h-1zM31,40h1v1h-1zM31,41h1v1h-1zM31,43h1v1h-1zM31,44h1v1h-1zM31,45h1v1h-1zM31,61h1v1h-1zM31,62h1v1h-1zM32,14h1v1h-1zM32,16h1v1h-1zM32,17h1v1h-1zM32,18h1v1h-1zM32,19h1v1h-1zM32,20h1v1h-1zM32,21h1v1h-1zM32,22h1v1h-1zM32,26h1v1h-1zM32,32h1v1h-1zM32,33h1v1h-1zM32,35h1v1h-1zM32,39h1v1h-1zM32,40h1v1h-1zM32,41h1v1h-1zM32,46h1v1h-1zM32,47h1v1h-1zM32,49h1v1h-1zM32,50h1v1h-1zM32,59h1v1h-1zM32,60h1v1h-1zM33,11h1v1h-1zM33,23h1v1h-1zM33,24h1v1h-1zM33,26h1v1h-1zM33,27h1v1h-1zM33,29h1v1h-1zM33,32h1v1h-1zM33,33h1v1h-1zM33,37h1v1h-1zM33,47h1v1h-1zM33,48h1v1h-1zM33,49h1v1h-1zM33,50h1v1h-1zM33,53h1v1h-1zM33,55h1v1h-1zM33,56h1v1h-1zM33,62h1v1h-1zM34,10h1v1h-1zM34,11h1v1h-1zM34,12h1v1h-1zM34,13h1v1h-1zM34,14h1v1h-1zM34,16h1v1h-1zM34,17h1v1h-1zM34,18h1v1h-1zM34,21h1v1h-1zM34,24h1v1h-1zM34,30h1v1h-1zM34,33h1v1h-1zM34,34h1v1h-1zM34,35h1v1h-1zM34,36h1v1h-1zM34,37h1v1h-1zM34,38h1v1h-1zM34,41h1v1h-1zM34,48h1v1h-1zM34,49h1v1h-1zM34,50h1v1h-1zM34,53h1v1h-1zM34,54h1v1h-1zM34,55h1v1h-1zM34,56h1v1h-1zM34,57h1v1h-1zM34,58h1v1h-1zM34,59h1v1h-1zM34,61h1v1h-1zM35,12h1v1h-1zM35,13h1v1h-1zM35,14h1v1h-1zM35,18h1v1h-1zM35,26h1v1h-1zM35,27h1v1h-1zM35,28h1v1h-1zM35,31h1v1h-1zM35,38h1v1h-1zM35,40h1v1h-1zM35,41h1v1h-1zM35,42h1v1h-1zM35,46h1v1h-1zM35,48h1v1h-1zM35,49h1v1h-1zM35,50h1v1h-1zM35,58h1v1h-1zM35,59h1v1h-1zM36,14h1v1h-1zM36,16h1v1h-1zM36,18h1v1h-1zM36,19h1v1h-1zM36,22h1v1h-1zM36,32h1v1h-1zM36,34h1v1h-1zM36,36h1v1h-1zM36,38h1v1h-1zM36,41h1v1h-1zM36,42h1v1h-1zM36,46h1v1h-1zM36,48h1v1h-1zM36,49h1v1h-1zM36,50h1v1h-1zM36,54h1v1h-1zM36,56h1v1h-1zM36,58h1v1h-1zM36,59h1v1h-1zM36,61h1v1h-1zM36,62h1v1h-1zM37,10h1v1h-1zM37,13h1v1h-1zM37,14h1v1h-1zM37,22h1v1h-1zM37,23h1v1h-1zM37,30h1v1h-1zM37,32h1v1h-1zM37,34h1v1h-1zM37,46h1v1h-1zM37,48h1v1h-1zM37,49h1v1h-1zM37,50h1v1h-1zM37,51h1v1h-1zM37,53h1v1h-1zM37,54h1v1h-1zM37,58h1v1h-1zM37,61h1v1h-1zM37,62h1v1h-1zM38,10h1v1h-1zM38,14h1v1h-1zM38,15h1v1h-1zM38,17h1v1h-1zM38,18h1v1h-1zM38,19h1v1h-1zM38,21h1v1h-1zM38,22h1v1h-1zM38,23h1v1h-1zM38,27h1v1h-1zM38,32h1v1h-1zM38,34h1v1h-1zM38,35h1v1h-1zM38,36h1v1h-1zM38,38h1v1h-1zM38,40h1v1h-1zM38,43h1v1h-1zM38,44h1v1h-1zM38,49h1v1h-1zM38,50h1v1h-1zM38,51h1v1h-1zM38,54h1v1h-1zM38,55h1v1h-1zM38,56h1v1h-1zM38,57h1v1h-1zM38,58h1v1h-1zM38,59h1v1h-1zM38,61h1v1h-1zM38,62h1v1h-1zM39,14h1v1h-1zM39,15h1v1h-1zM39,18h1v1h-1zM39,19h1v1h-1zM39,24h1v1h-1zM39,25h1v1h-1zM39,26h1v1h-1zM39,27h1v1h-1zM39,29h1v1h-1zM39,30h1v1h-1zM39,32h1v1h-1zM39,34h1v1h-1zM39,35h1v1h-1zM39,36h1v1h-1zM39,40h1v1h-1zM39,43h1v1h-1zM39,44h1v1h-1zM39,46h1v1h-1zM39,52h1v1h-1zM39,54h1v1h-1zM39,55h1v1h-1zM39,56h1v1h-1zM39,57h1v1h-1zM40,10h1v1h-1zM40,11h1v1h-1zM40,16h1v1h-1zM40,18h1v1h-1zM40,19h1v1h-1zM40,22h1v1h-1zM40,27h1v1h-1zM40,35h1v1h-1zM40,36h1v1h-1zM40,38h1v1h-1zM40,43h1v1h-1zM40,44h1v1h-1zM40,46h1v1h-1zM40,55h1v1h-1zM40,56h1v1h-1zM40,57h1v1h-1zM40,58h1v1h-1zM40,59h1v1h-1zM40,60h1v1h-1zM40,61h1v1h-1zM41,12h1v1h-1zM41,13h1v1h-1zM41,25h1v1h-1zM41,27h1v1h-1zM41,30h1v1h-1zM41,31h1v1h-1zM41,38h1v1h-1zM41,39h1v1h-1zM41,40h1v1h-1zM41,41h1v1h-1zM41,43h1v1h-1zM41,44h1v1h-1zM41,45h1v1h-1zM41,46h1v1h-1zM41,50h1v1h-1zM41,51h1v1h-1zM41,52h1v1h-1zM41,53h1v1h-1zM41,60h1v1h-1zM41,61h1v1h-1zM42,10h1v1h-1zM42,12h1v1h-1zM42,13h1v1h-1zM42,14h1v1h-1zM42,16h1v1h-1zM42,17h1v1h-1zM42,19h1v1h-1zM42,20h1v1h-1zM42,31h1v1h-1zM42,46h1v1h-1zM42,47h1v1h-1zM42,48h1v1h-1zM42,57h1v1h-1zM42,61h1v1h-1zM42,62h1v1h-1zM43,11h1v1h-1zM43,12h1v1h-1zM43,19h1v1h-1zM43,20h1v1h-1zM43,23h1v1h-1zM43,28h1v1h-1zM43,30h1v1h-1zM43,31h1v1h-1zM43,32h1v1h-1zM43,34h1v1h-1zM43,36h1v1h-1zM43,37h1v1h-1zM43,42h1v1h-1zM43,47h1v1h-1zM43,48h1v1h-1zM43,49h1v1h-1zM43,51h1v1h-1zM43,53h1v1h-1zM43,54h1v1h-1zM43,55h1v1h-1zM43,62h1v1h-1zM44,14h1v1h-1zM44,15h1v1h-1zM44,16h1v1h-1zM44,18h1v1h-1zM44,19h1v1h-1zM44,20h1v1h-1zM44,21h1v1h-1zM44,23h1v1h-1zM44,25h1v1h-1zM44,27h1v1h-1zM44,28h1v1h-1zM44,32h1v1h-1zM44,34h1v1h-1zM44,38h1v1h-1zM44,39h1v1h-1zM44,50h1v1h-1zM44,51h1v1h-1zM44,53h1v1h-1zM44,54h1v1h-1zM44,55h1v1h-1zM44,56h1v1h-1zM44,58h1v1h-1zM44,59h1v1h-1zM44,60h1v1h-1zM44,61h1v1h-1zM44,62h1v1h-1zM45,10h1v1h-1zM45,12h1v1h-1zM45,25h1v1h-1zM45,28h1v1h-1zM45,30h1v1h-1zM45,35h1v1h-1zM45,38h1v1h-1zM45,39h1v1h-1zM45,42h1v1h-1zM45,45h1v1h-1zM45,46h1v1h-1zM45,47h1v1h-1zM45,54h1v1h-1zM45,55h1v1h-1zM45,56h1v1h-1zM45,57h1v1h-1zM45,58h1v1h-1zM45,59h1v1h-1zM45,60h1v1h-1zM45,61h1v1h-1zM46,12h1v1h-1zM46,13h1v1h-1zM46,14h1v1h-1zM46,15h1v1h-1zM46,16h1v1h-1zM46,18h1v1h-1zM46,22h1v1h-1zM46,23h1v1h-1zM46,34h1v1h-1zM46,35h1v1h-1zM46,42h1v1h-1zM46,46h1v1h-1zM46,47h1v1h-1zM46,50h1v1h-1zM46,52h1v1h-1zM46,60h1v1h-1zM46,61h1v1h-1zM46,62h1v1h-1zM47,10h1v1h-1zM47,18h1v1h-1zM47,19h1v1h-1zM47,21h1v1h-1zM47,22h1v1h-1zM47,23h1v1h-1zM47,24h1v1h-1zM47,25h1v1h-1zM47,27h1v1h-1zM47,29h1v1h-1zM47,31h1v1h-1zM47,33h1v1h-1zM47,34h1v1h-1zM47,35h1v1h-1zM47,36h1v1h-1zM47,38h1v1h-1zM47,39h1v1h-1zM47,43h1v1h-1zM47,47h1v1h-1zM47,53h1v1h-1zM47,54h1v1h-1zM47,55h1v1h-1zM47,57h1v1h-1zM47,60h1v1h-1zM47,62h1v1h-1zM48,11h1v1h-1zM48,13h1v1h-1zM48,15h1v1h-1zM48,16h1v1h-1zM48,29h1v1h-1zM48,30h1v1h-1zM48,31h1v1h-1zM48,36h1v1h-1zM48,40h1v1h-1zM48,45h1v1h-1zM48,48h1v1h-1zM48,50h1v1h-1zM48,60h1v1h-1zM49,22h1v1h-1zM49,24h1v1h-1zM49,25h1v1h-1zM49,26h1v1h-1zM49,27h1v1h-1zM49,31h1v1h-1zM49,36h1v1h-1zM49,37h1v1h-1zM49,40h1v1h-1zM49,43h1v1h-1zM49,45h1v1h-1zM49,46h1v1h-1zM49,49h1v1h-1zM49,50h1v1h-1zM49,55h1v1h-1zM49,61h1v1h-1zM50,11h1v1h-1zM50,12h1v1h-1zM50,14h1v1h-1zM50,16h1v1h-1zM50,17h1v1h-1zM50,19h1v1h-1zM50,20h1v1h-1zM50,27h1v1h-1zM50,31h1v1h-1zM50,32h1v1h-1zM50,36h1v1h-1zM50,37h1v1h-1zM50,40h1v1h-1zM50,41h1v1h-1zM50,43h1v1h-1zM50,51h1v1h-1zM50,52h1v1h-1zM50,54h1v1h-1zM50,55h1v1h-1zM50,56h1v1h-1zM50,57h1v1h-1zM50,61h1v1h-1zM51,13h1v1h-1zM51,14h1v1h-1zM51,20h1v1h-1zM51,21h1v1h-1zM51,23h1v1h-1zM51,29h1v1h-1zM51,38h1v1h-1zM51,47h1v1h-1zM51,49h1v1h-1zM51,50h1v1h-1zM51,51h1v1h-1zM51,52h1v1h-1zM51,57h1v1h-1zM51,59h1v1h-1zM51,62h1v1h-1zM52,10h1v1h-1zM52,11h1v1h-1zM52,13h1v1h-1zM52,14h1v1h-1zM52,15h1v1h-1zM52,16h1v1h-1zM52,23h1v1h-1zM52,26h1v1h-1zM52,29h1v1h-1zM52,35h1v1h-1zM52,37h1v1h-1zM52,38h1v1h-1zM52,39h1v1h-1zM52,43h1v1h-1zM52,45h1v1h-1zM52,47h1v1h-1zM52,55h1v1h-1zM52,56h1v1h-1zM52,57h1v1h-1zM52,59h1v1h-1zM52,62h1v1h-1zM53,11h1v1h-1zM53,12h1v1h-1zM53,17h1v1h-1zM53,18h1v1h-1zM53,20h1v1h-1zM53,23h1v1h-1zM53,25h1v1h-1zM53,26h1v1h-1zM53,28h1v1h-1zM53,29h1v1h-1zM53,30h1v1h-1zM53,32h1v1h-1zM53,33h1v1h-1zM53,43h1v1h-1zM53,45h1v1h-1zM53,47h1v1h-1zM53,49h1v1h-1zM53,53h1v1h-1zM53,59h1v1h-1zM53,61h1v1h-1zM54,16h1v1h-1zM54,18h1v1h-1zM54,20h1v1h-1zM54,23h1v1h-1zM54,24h1v1h-1zM54,25h1v1h-1zM54,26h1v1h-1zM54,30h1v1h-1zM54,33h1v1h-1zM54,34h1v1h-1zM54,35h1v1h-1zM54,36h1v1h-1zM54,37h1v1h-1zM54,38h1v1h-1zM54,39h1v1h-1zM54,41h1v1h-1zM54,42h1v1h-1zM54,43h1v1h-1zM54,48h1v1h-1zM54,49h1v1h-1zM54,52h1v1h-1zM54,53h1v1h-1zM54,54h1v1h-1zM54,56h1v1h-1zM54,57h1v1h-1zM54,58h1v1h-1zM55,18h1v1h-1zM55,20h1v1h-1zM55,26h1v1h-1zM55,38h1v1h-1zM55,39h1v1h-1zM55,45h1v1h-1zM55,49h1v1h-1zM55,50h1v1h-1zM55,52h1v1h-1zM55,53h1v1h-1zM55,54h1v1h-1zM55,58h1v1h-1zM55,60h1v1h-1zM55,62h1v1h-1zM56,10h1v1h-1zM56,11h1v1h-1zM56,12h1v1h-1zM56,13h1v1h-1zM56,14h1v1h-1zM56,15h1v1h-1zM56,16h1v1h-1zM56,18h1v1h-1zM56,20h1v1h-1zM56,21h1v1h-1zM56,23h1v1h-1zM56,32h1v1h-1zM56,34h1v1h-1zM56,36h1v1h-1zM56,45h1v1h-1zM56,46h1v1h-1zM56,53h1v1h-1zM56,54h1v1h-1zM56,56h1v1h-1zM56,58h1v1h-1zM56,62h1v1h-1zM57,16h1v1h-1zM57,18h1v1h-1zM57,20h1v1h-1zM57,21h1v1h-1zM57,26h1v1h-1zM57,29h1v1h-1zM57,33h1v1h-1zM57,34h1v1h-1zM57,38h1v1h-1zM57,39h1v1h-1zM57,40h1v1h-1zM57,43h1v1h-1zM57,44h1v1h-1zM57,45h1v1h-1zM57,46h1v1h-1zM57,47h1v1h-1zM57,49h1v1h-1zM57,50h1v1h-1zM57,54h1v1h-1zM57,58h1v1h-1zM57,60h1v1h-1zM57,61h1v1h-1zM58,10h1v1h-1zM58,12h1v1h-1zM58,13h1v1h-1zM58,14h1v1h-1zM58,16h1v1h-1zM58,22h1v1h-1zM58,24h1v1h-1zM58,25h1v1h-1zM58,26h1v1h-1zM58,27h1v1h-1zM58,34h1v1h-1zM58,35h1v1h-1zM58,36h1v1h-1zM58,37h1v1h-1zM58,38h1v1h-1zM58,39h1v1h-1zM58,40h1v1h-1zM58,41h1v1h-1zM58,47h1v1h-1zM58,48h1v1h-1zM58,49h1v1h-1zM58,50h1v1h-1zM58,51h1v1h-1zM58,52h1v1h-1zM58,53h1v1h-1zM58,54h1v1h-1zM58,55h1v1h-1zM58,56h1v1h-1zM58,57h1v1h-1zM58,58h1v1h-1zM58,60h1v1h-1zM58,61h1v1h-1zM59,10h1v1h-1zM59,12h1v1h-1zM59,13h1v1h-1zM59,14h1v1h-1zM59,16h1v1h-1zM59,19h1v1h-1zM59,20h1v1h-1zM59,21h1v1h-1zM59,26h1v1h-1zM59,27h1v1h-1zM59,28h1v1h-1zM59,29h1v1h-1zM59,31h1v1h-1zM59,37h1v1h-1zM59,41h1v1h-1zM59,42h1v1h-1zM59,44h1v1h-1zM59,45h1v1h-1zM59,47h1v1h-1zM59,48h1v1h-1zM59,49h1v1h-1zM59,51h1v1h-1zM59,54h1v1h-1zM59,55h1v1h-1zM59,56h1v1h-1zM59,57h1v1h-1zM59,60h1v1h-1zM59,61h1v1h-1zM59,62h1v1h-1zM60,10h1v1h-1zM60,12h1v1h-1zM60,13h1v1h-1zM60,14h1v1h-1zM60,16h1v1h-1zM60,20h1v1h-1zM60,22h1v1h-1zM60,32h1v1h-1zM60,34h1v1h-1zM60,35h1v1h-1zM60,36h1v1h-1zM60,37h1v1h-1zM60,39h1v1h-1zM60,42h1v1h-1zM60,43h1v1h-1zM60,48h1v1h-1zM60,54h1v1h-1zM60,55h1v1h-1zM60,59h1v1h-1zM61,10h1v1h-1zM61,16h1v1h-1zM61,18h1v1h-1zM61,25h1v1h-1zM61,27h1v1h-1zM61,29h1v1h-1zM61,31h1v1h-1zM61,32h1v1h-1zM61,34h1v1h-1zM61,35h1v1h-1zM61,36h1v1h-1zM61,41h1v1h-1zM61,42h1v1h-1zM61,46h1v1h-1zM61,47h1v1h-1zM61,49h1v1h-1zM61,51h1v1h-1zM61,52h1v1h-1zM61,55h1v1h-1zM61,56h1v1h-1zM61,61h1v1h-1zM62,10h1v1h-1zM62,11h1v1h-1zM62,12h1v1h-1zM62,13h1v1h-1zM62,14h1v1h-1zM62,15h1v1h-1zM62,16h1v1h-1zM62,18h1v1h-1zM62,19h1v1h-1zM62,21h1v1h-1zM62,22h1v1h-1zM62,23h1v1h-1zM62,25h1v1h-1zM62,26h1v1h-1zM62,27h1v1h-1zM62,29h1v1h-1zM62,33h1v1h-1zM62,35h1v1h-1zM62,37h1v1h-1zM62,39h1v1h-1zM62,42h1v1h-1zM62,43h1v1h-1zM62,45h1v1h-1zM62,51h1v1h-1zM62,54h1v1h-1zM62,55h1v1h-1zM62,57h1v1h-1z" fill="#000000"/>
</svg>
