<?xml version="1.0" encoding="UTF-8"?>
<!DOCTYPE svg PUBLIC "-//W3C//DTD SVG 1.1//EN" "http://www.w3.org/Graphics/SVG/1.1/DTD/svg11.dtd">
<svg xmlns="http://www.w3.org/2000/svg" version="1.1" viewBox="0 0 73 73" stroke="none">
	<rect width="100%" height="100%" fill="#FFFFFF"/>
	<path d="M11,10h1v1h-1zM11,19h1v1h-1zM11,34h1v1h-1zM11,56h1v1h-1zM12,36h1v1h-1zM12,39h1v1h-1zM12,44h1v1h-1zM13,21h1v1h-1zM13,22h1v1h-1zM13,27h1v1h-1zM13,28h1v1h-1zM13,30h1v1h-1zM13,31h1v1h-1zM13,54h1v1h-1zM14,24h1v1h-1zM14,42h1v1h-1zM14,45h1v1h-1zM14,46h1v1h-1zM15,34h1v1h-1zM15,49h1v1h-1zM16,26h1v1h-1zM16,28h1v1h-1zM16,38h1v1h-1zM16,40h1v1h-1zM16,42h1v1h-1zM16,44h1v1h-1zM16,46h1v1h-1zM16,50h1v1h-1zM17,21h1v1h-1zM17,27h1v1h-1zM17,28h1v1h-1zM17,39h1v1h-1zM17,51h1v1h-1zM18,16h1v1h-1zM18,19h1v1h-1zM18,23h1v1h-1zM18,28h1v1h-1zM18,30h1v1h-1zM18,31h1v1h-1zM18,35h1v1h-1zM18,48h1v1h-1zM18,55h1v1h-1zM19,28h1v1h-1zM19,39h1v1h-1zM19,40h1v1h-1zM19,55h1v1h-1zM19,58h1v1h-1zM20,14h1v1h-1zM20,16h1v1h-1zM20,29h1v1h-1zM20,32h1v1h-1zM20,37h1v1h-1zM20,41h1v1h-1zM20,42h1v1h-1zM20,52h1v1h-1zM20,56h1v1h-1zM21,22h1v1h-1zM21,25h1v1h-1zM21,26h1v1h-1zM21,38h1v1h-1zM21,44h1v1h-1zM21,46h1v1h-1zM21,47h1v1h-1zM21,52h1v1h-1zM22,16h1v1h-1zM22,19h1v1h-1zM22,31h1v1h-1zM22,39h1v1h-1zM22,47h1v1h-1zM22,53h1v1h-1zM23,19h1v1h-1zM23,22h1v1h-1zM23,24h1v1h-1zM23,34h1v1h-1zM23,41h1v1h-1zM23,45h1v1h-1zM23,48h1v1h-1zM24,12h1v1h-1zM24,13h1v1h-1zM24,21h1v1h-1zM24,29h1v1h-1zM24,34h1v1h-1zM24,48h1v1h-1zM24,49h1v1h-1zM25,22h1v1h-1zM25,27h1v1h-1zM25,41h1v1h-1zM25,57h1v1h-1zM26,13h1v1h-1zM26,15h1v1h-1zM26,16h1v1h-1zM26,27h1v1h-1zM26,31h1v1h-1zM26,38h1v1h-1zM26,43h1v1h-1zM26,44h1v1h-1zM26,45h1v1h-1zM27,35h1v1h-1zM27,40h1v1h-1zM27,42h1v1h-1zM28,19h1v1h-1zM28,20h1v1h-1zM28,22h1v1h-1zM28,23h1v1h-1zM28,31h1v1h-1zM28,40h1v1h-1zM28,41h1v1h-1zM29,10h1v1h-1zM29,20h1v1h-1zM29,22h1v1h-1zM29,25h1v1h-1zM29,32h1v1h-1zM29,33h1v1h-1zM29,37h1v1h-1zM29,40h1v1h-1zM29,43h1v1h-1zM29,56h1v1h-1zM29,58h1v1h-1zM30,12h1v1h-1zM30,20h1v1h-1zM30,33h1v1h-1zM31,34h1v1h-1zM31,36h1v1h-1zM32,10h1v1h-1zM32,24h1v1h-1zM32,30h1v1h-1zM32,34h1v1h-1zM32,54h1v1h-1zM32,62h1v1h-1zM33,17h1v1h-1zM33,19h1v1h-1zM33,20h1v1h-1zM33,39h1v1h-1zM33,40h1v1h-1zM33,45h1v1h-1zM33,52h1v1h-1zM34,15h1v1h-1zM34,46h1v1h-1zM34,51h1v1h-1zM35,20h1v1h-1zM35,23h1v1h-1zM35,34h1v1h-1zM35,43h1v1h-1zM35,53h1v1h-1zM35,54h1v1h-1zM36,11h1v1h-1zM36,12h1v1h-1zM36,27h1v1h-1zM36,47h1v1h-1zM37,18h1v1h-1zM37,24h1v1h-1zM37,28h1v1h-1zM37,29h1v1h-1zM37,38h1v1h-1zM37,39h1v1h-1zM37,40h1v1h-1zM37,45h1v1h-1zM38,12h1v1h-1zM38,16h1v1h-1zM38,20h1v1h-1zM38,28h1v1h-1zM38,31h1v1h-1zM38,37h1v1h-1zM38,42h1v1h-1zM38,47h1v1h-1zM39,12h1v1h-1zM39,21h1v1h-1zM39,22h1v1h-1zM39,42h1v1h-1zM39,50h1v1h-1zM39,59h1v1h-1zM39,60h1v1h-1zM40,25h1v1h-1zM40,30h1v1h-1zM40,31h1v1h-1zM40,32h1v1h-1zM40,33h1v1h-1zM40,42h1v1h-1zM40,49h1v1h-1zM40,51h1v1h-1zM41,17h1v1h-1zM41,18h1v1h-1zM41,21h1v1h-1zM41,49h1v1h-1zM41,58h1v1h-1zM42,22h1v1h-1zM42,29h1v1h-1zM42,33h1v1h-1zM42,38h1v1h-1zM42,42h1v1h-1zM42,43h1v1h-1zM42,52h1v1h-1zM42,56h1v1h-1zM43,15h1v1h-1zM43,22h1v1h-1zM43,29h1v1h-1zM43,44h1v1h-1zM43,45h1v1h-1zM43,60h1v1h-1zM44,36h1v1h-1zM44,45h1v1h-1zM44,46h1v1h-1zM44,48h1v1h-1zM45,14h1v1h-1zM45,17h1v1h-1zM45,18h1v1h-1zM45,21h1v1h-1zM45,22h1v1h-1zM45,32h1v1h-1zM45,33h1v1h-1zM45,36h1v1h-1zM45,50h1v1h-1zM45,52h1v1h-1zM46,20h1v1h-1zM46,26h1v1h-1zM46,29h1v1h-1zM46,37h1v1h-1zM46,38h1v1h-1zM46,40h1v1h-1zM46,44h1v1h-1zM46,54h1v1h-1zM46,58h1v1h-1zM47,12h1v1h-1zM47,14h1v1h-1zM47,17h1v1h-1zM47,28h1v1h-1zM47,41h1v1h-1zM47,45h1v1h-1zM47,49h1v1h-1zM47,51h1v1h-1zM48,18h1v1h-1zM48,22h1v1h-1zM48,26h1v1h-1zM48,28h1v1h-1zM48,34h1v1h-1zM48,38h1v1h-1zM48,44h1v1h-1zM48,52h1v1h-1zM49,12h1v1h-1zM49,14h1v1h-1zM49,38h1v1h-1zM49,42h1v1h-1zM49,53h1v1h-1zM49,58h1v1h-1zM50,15h1v1h-1zM50,25h1v1h-1zM50,45h1v1h-1zM50,49h1v1h-1zM50,60h1v1h-1zM51,11h1v1h-1zM51,26h1v1h-1zM51,28h1v1h-1zM51,31h1v1h-1zM51,36h1v1h-1zM51,40h1v1h-1zM51,55h1v1h-1zM51,58h1v1h-1zM52,18h1v1h-1zM52,19h1v1h-1zM52,27h1v1h-1zM52,31h1v1h-1zM52,34h1v1h-1zM52,40h1v1h-1zM52,51h1v1h-1zM53,27h1v1h-1zM53,36h1v1h-1zM53,40h1v1h-1zM54,13h1v1h-1zM54,45h1v1h-1zM54,46h1v1h-1zM54,51h1v1h-1zM54,55h1v1h-1zM55,22h1v1h-1zM55,24h1v1h-1zM55,34h1v1h-1zM55,41h1v1h-1zM55,42h1v1h-1zM55,47h1v1h-1zM56,22h1v1h-1zM56,28h1v1h-1zM56,38h1v1h-1zM56,41h1v1h-1zM56,49h1v1h-1zM56,51h1v1h-1zM57,10h1v1h-1zM57,28h1v1h-1zM57,31h1v1h-1zM57,42h1v1h-1zM57,52h1v1h-1zM58,30h1v1h-1zM58,32h1v1h-1zM58,43h1v1h-1zM59,23h1v1h-1zM59,33h1v1h-1zM59,35h1v1h-1zM60,18h1v1h-1zM60,26h1v1h-1zM60,28h1v1h-1zM60,30h1v1h-1zM60,46h1v1h-1zM60,50h1v1h-1z" fill="#000000"/>
</svg>
