<?xml version="1.0" encoding="UTF-8"?>
<!DOCTYPE svg PUBLIC "-//W3C//DTD SVG 1.1//EN" "http://www.w3.org/Graphics/SVG/1.1/DTD/svg11.dtd">
<svg xmlns="http://www.w3.org/2000/svg" version="1.1" viewBox="0 0 41 41" stroke="none">
	<rect width="100%" height="100%" fill="#FFFFFF"/>
	<path d="M11,10h1v1h-1zM11,24h1v1h-1zM13,20h1v1h-1zM13,22h1v1h-1zM15,18h1v1h-1zM16,20h1v1h-1zM17,21h1v1h-1zM18,16h1v1h-1zM19,11h1v1h-1zM19,18h1v1h-1zM19,24h1v1h-1zM19,26h1v1h-1zM21,26h1v1h-1zM21,28h1v1h-1zM22,22h1v1h-1zM22,25h1v1h-1zM23,25h1v1h-1zM24,18h1v1h-1zM24,20h1v1h-1zM25,10h1v1h-1zM25,27h1v1h-1zM25,28h1v1h-1zM26,23h1v1h-1zM27,25h1v1h-1z" fill="#000000"/>
</svg>
