<?xml version="1.0" encoding="UTF-8"?>
<!DOCTYPE svg PUBLIC "-//W3C//DTD SVG 1.1//EN" "http://www.w3.org/Graphics/SVG/1.1/DTD/svg11.dtd">
<svg xmlns="http://www.w3.org/2000/svg" version="1.1" viewBox="0 0 49 49" stroke="none">
	<rect width="100%" height="100%" fill="#FFFFFF"/>
	<path d="M10,10h1v1h-1zM10,11h1v1h-1zM10,12h1v1h-1zM10,13h1v1h-1zM10,14h1v1h-1zM10,15h1v1h-1zM10,16h1v1h-1zM10,18h1v1h-1zM10,19h1v1h-1zM10,23h1v1h-1zM10,28h1v1h-1zM10,30h1v1h-1zM10,32h1v1h-1zM10,33h1v1h-1zM10,34h1v1h-1zM10,35h1v1h-1zM10,36h1v1h-1zM10,37h1v1h-1zM10,38h1v1h-1zM11,16h1v1h-1zM11,18h1v1h-1zM11,19h1v1h-1zM11,21h1v1h-1zM11,23h1v1h-1zM11,24h1v1h-1zM11,26h1v1h-1zM11,27h1v1h-1zM11,38h1v1h-1zM12,10h1v1h-1zM12,12h1v1h-1zM12,13h1v1h-1zM12,14h1v1h-1zM12,16h1v1h-1zM12,19h1v1h-1zM12,20h1v1h-1zM12,21h1v1h-1zM12,23h1v1h-1zM12,24h1v1h-1zM12,28h1v1h-1zM12,32h1v1h-1zM12,34h1v1h-1zM12,35h1v1h-1zM12,36h1v1h-1zM12,38h1v1h-1zM13,10h1v1h-1zM13,12h1v1h-1zM13,13h1v1h-1zM13,14h1v1h-1zM13,16h1v1h-1zM13,25h1v1h-1zM13,26h1v1h-1zM13,27h1v1h-1zM13,30h1v1h-1zM13,32h1v1h-1zM13,34h1v1h-1zM13,35h1v1h-1zM13,36h1v1h-1zM13,38h1v1h-1zM14,10h1v1h-1zM14,12h1v1h-1zM14,13h1v1h-1zM14,14h1v1h-1zM14,16h1v1h-1zM14,19h1v1h-1zM14,20h1v1h-1zM14,22h1v1h-1zM14,25h1v1h-1zM14,26h1v1h-1zM14,32h1v1h-1zM14,34h1v1h-1zM14,35h1v1h-1zM14,36h1v1h-1zM14,38h1v1h-1zM15,10h1v1h-1zM15,16h1v1h-1zM15,20h1v1h-1zM15,22h1v1h-1zM15,23h1v1h-1zM15,25h1v1h-1zM15,26h1v1h-1zM15,29h1v1h-1zM15,30h1v1h-1zM15,32h1v1h-1zM15,38h1v1h-1zM16,10h1v1h-1zM16,11h1v1h-1zM16,12h1v1h-1zM16,13h1v1h-1zM16,14h1v1h-1zM16,15h1v1h-1zM16,16h1v1h-1zM16,18h1v1h-1zM16,20h1v1h-1zM16,26h1v1h-1zM16,28h1v1h-1zM16,30h1v1h-1zM16,32h1v1h-1zM16,33h1v1h-1zM16,34h1v1h-1zM16,35h1v1h-1zM16,36h1v1h-1zM16,37h1v1h-1zM16,38h1v1h-1zM17,18h1v1h-1zM17,20h1v1h-1zM17,21h1v1h-1zM17,24h1v1h-1zM17,25h1v1h-1zM17,26h1v1h-1zM17,27h1v1h-1zM18,11h1v1h-1zM18,12h1v1h-1zM18,14h1v1h-1zM18,16h1v1h-1zM18,17h1v1h-1zM18,20h1v1h-1zM18,21h1v1h-1zM18,22h1v1h-1zM18,29h1v1h-1zM18,30h1v1h-1zM18,31h1v1h-1zM18,32h1v1h-1zM18,35h1v1h-1zM18,37h1v1h-1zM18,38h1v1h-1zM19,13h1v1h-1zM19,14h1v1h-1zM19,24h1v1h-1zM19,29h1v1h-1zM19,30h1v1h-1zM19,31h1v1h-1zM19,32h1v1h-1zM19,35h1v1h-1zM20,10h1v1h-1zM20,11h1v1h-1zM20,14h1v1h-1zM20,15h1v1h-1zM20,16h1v1h-1zM20,21h1v1h-1zM20,24h1v1h-1zM20,27h1v1h-1zM20,29h1v1h-1zM20,30h1v1h-1zM20,31h1v1h-1zM20,32h1v1h-1zM20,33h1v1h-1zM20,35h1v1h-1zM20,36h1v1h-1zM21,18h1v1h-1zM21,19h1v1h-1zM21,20h1v1h-1zM21,21h1v1h-1zM21,23h1v1h-1zM21,24h1v1h-1zM21,25h1v1h-1zM21,35h1v1h-1zM21,38h1v1h-1zM22,13h1v1h-1zM22,14h1v1h-1zM22,15h1v1h-1zM22,16h1v1h-1zM22,18h1v1h-1zM22,19h1v1h-1zM22,20h1v1h-1zM22,21h1v1h-1zM22,26h1v1h-1zM22,28h1v1h-1zM22,29h1v1h-1zM22,34h1v1h-1zM22,35h1v1h-1zM22,36h1v1h-1zM22,37h1v1h-1zM22,38h1v1h-1zM23,11h1v1h-1zM23,21h1v1h-1zM23,22h1v1h-1zM23,24h1v1h-1zM23,25h1v1h-1zM23,26h1v1h-1zM23,30h1v1h-1zM23,31h1v1h-1zM23,37h1v1h-1zM23,38h1v1h-1zM24,11h1v1h-1zM24,15h1v1h-1zM24,17h1v1h-1zM24,18h1v1h-1zM24,19h1v1h-1zM24,28h1v1h-1zM24,32h1v1h-1zM24,35h1v1h-1zM24,37h1v1h-1zM24,38h1v1h-1zM25,10h1v1h-1zM25,11h1v1h-1zM25,13h1v1h-1zM25,14h1v1h-1zM25,15h1v1h-1zM25,23h1v1h-1zM25,25h1v1h-1zM25,29h1v1h-1zM25,30h1v1h-1zM25,38h1v1h-1zM26,11h1v1h-1zM26,15h1v1h-1zM26,19h1v1h-1zM26,20h1v1h-1zM26,24h1v1h-1zM26,25h1v1h-1zM26,37h1v1h-1zM26,38h1v1h-1zM27,10h1v1h-1zM27,11h1v1h-1zM27,14h1v1h-1zM27,15h1v1h-1zM27,17h1v1h-1zM27,19h1v1h-1zM27,20h1v1h-1zM27,22h1v1h-1zM27,23h1v1h-1zM27,24h1v1h-1zM27,25h1v1h-1zM27,29h1v1h-1zM27,31h1v1h-1zM27,32h1v1h-1zM27,36h1v1h-1zM27,37h1v1h-1zM27,38h1v1h-1zM28,10h1v1h-1zM28,11h1v1h-1zM28,14h1v1h-1zM28,15h1v1h-1zM28,16h1v1h-1zM28,17h1v1h-1zM28,24h1v1h-1zM28,25h1v1h-1zM28,32h1v1h-1zM28,33h1v1h-1zM28,36h1v1h-1zM28,38h1v1h-1zM29,12h1v1h-1zM29,17h1v1h-1zM29,20h1v1h-1zM29,25h1v1h-1zM29,26h1v1h-1zM29,29h1v1h-1zM29,36h1v1h-1zM30,11h1v1h-1zM30,12h1v1h-1zM30,16h1v1h-1zM30,19h1v1h-1zM30,20h1v1h-1zM30,22h1v1h-1zM30,24h1v1h-1zM30,25h1v1h-1zM30,26h1v1h-1zM30,30h1v1h-1zM30,31h1v1h-1zM30,32h1v1h-1zM30,33h1v1h-1zM30,34h1v1h-1zM30,37h1v1h-1zM30,38h1v1h-1zM31,22h1v1h-1zM31,23h1v1h-1zM31,24h1v1h-1zM31,26h1v1h-1zM31,28h1v1h-1zM31,34h1v1h-1zM31,36h1v1h-1zM32,10h1v1h-1zM32,11h1v1h-1zM32,12h1v1h-1zM32,13h1v1h-1zM32,14h1v1h-1zM32,15h1v1h-1zM32,16h1v1h-1zM32,18h1v1h-1zM32,19h1v1h-1zM32,20h1v1h-1zM32,27h1v1h-1zM32,28h1v1h-1zM32,29h1v1h-1zM32,30h1v1h-1zM32,32h1v1h-1zM32,34h1v1h-1zM32,35h1v1h-1zM33,16h1v1h-1zM33,21h1v1h-1zM33,23h1v1h-1zM33,26h1v1h-1zM33,27h1v1h-1zM33,28h1v1h-1zM33,30h1v1h-1zM33,34h1v1h-1zM33,38h1v1h-1zM34,10h1v1h-1zM34,12h1v1h-1zM34,13h1v1h-1zM34,14h1v1h-1zM34,16h1v1h-1zM34,18h1v1h-1zM34,21h1v1h-1zM34,30h1v1h-1zM34,31h1v1h-1zM34,32h1v1h-1zM34,33h1v1h-1zM34,34h1v1h-1zM34,35h1v1h-1zM34,36h1v1h-1zM34,37h1v1h-1zM34,38h1v1h-1zM35,10h1v1h-1zM35,12h1v1h-1zM35,13h1v1h-1zM35,14h1v1h-1zM35,16h1v1h-1zM35,19h1v1h-1zM35,20h1v1h-1zM35,24h1v1h-1zM35,25h1v1h-1zM35,27h1v1h-1zM35,33h1v1h-1zM35,35h1v1h-1zM35,36h1v1h-1zM36,10h1v1h-1zM36,12h1v1h-1zM36,13h1v1h-1zM36,14h1v1h-1zM36,16h1v1h-1zM36,20h1v1h-1zM36,21h1v1h-1zM36,24h1v1h-1zM36,30h1v1h-1zM36,31h1v1h-1zM36,33h1v1h-1zM36,35h1v1h-1zM36,36h1v1h-1zM37,10h1v1h-1zM37,16h1v1h-1zM37,18h1v1h-1zM37,20h1v1h-1zM37,21h1v1h-1zM37,22h1v1h-1zM37,24h1v1h-1zM37,25h1v1h-1zM37,26h1v1h-1zM37,28h1v1h-1zM37,29h1v1h-1zM37,31h1v1h-1zM37,32h1v1h-1zM37,37h1v1h-1zM37,38h1v1h-1zM38,10h1v1h-1zM38,11h1v1h-1zM38,12h1v1h-1zM38,13h1v1h-1zM38,14h1v1h-1zM38,15h1v1h-1zM38,16h1v1h-1zM38,19h1v1h-1zM38,22h1v1h-1zM38,24h1v1h-1zM38,27h1v1h-1zM38,28h1v1h-1zM38,29h1v1h-1zM38,31h1v1h-1zM38,33h1v1h-1zM38,36h1v1h-1z" fill="#000000"/>
</svg>
