<?xml version="1.0" encoding="UTF-8"?>
<!DOCTYPE svg PUBLIC "-//W3C//DTD SVG 1.1//EN" "http://www.w3.org/Graphics/SVG/1.1/DTD/svg11.dtd">
<svg xmlns="http://www.w3.org/2000/svg" version="1.1" viewBox="0 0 49 49" stroke="none">
	<rect width="100%" height="100%" fill="#FFFFFF"/>
	<path d="M11,10h1v1h-1zM11,32h1v1h-1zM12,18h1v1h-1zM12,23h1v1h-1zM12,26h1v1h-1zM14,28h1v1h-1zM16,20h1v1h-1zM16,24h1v1h-1zM16,28h1v1h-1zM17,20h1v1h-1zM17,21h1v1h-1zM18,16h1v1h-1zM18,25h1v1h-1zM19,17h1v1h-1zM19,32h1v1h-1zM20,14h1v1h-1zM20,27h1v1h-1zM21,17h1v1h-1zM21,21h1v1h-1zM21,22h1v1h-1zM21,23h1v1h-1zM21,26h1v1h-1zM21,30h1v1h-1zM22,12h1v1h-1zM22,16h1v1h-1zM22,29h1v1h-1zM23,22h1v1h-1zM23,30h1v1h-1zM24,36h1v1h-1zM25,14h1v1h-1zM25,18h1v1h-1zM25,22h1v1h-1zM25,26h1v1h-1zM26,12h1v1h-1zM26,19h1v1h-1zM26,24h1v1h-1zM26,28h1v1h-1zM26,29h1v1h-1zM27,15h1v1h-1zM27,22h1v1h-1zM28,16h1v1h-1zM28,20h1v1h-1zM28,31h1v1h-1zM29,10h1v1h-1zM29,22h1v1h-1zM29,32h1v1h-1zM30,31h1v1h-1zM31,18h1v1h-1zM31,24h1v1h-1zM32,25h1v1h-1zM33,10h1v1h-1zM33,27h1v1h-1zM35,18h1v1h-1zM35,35h1v1h-1zM37,32h1v1h-1z" fill="#000000"/>
</svg>
