<?xml version="1.0" encoding="UTF-8"?>
<!DOCTYPE svg PUBLIC "-//W3C//DTD SVG 1.1//EN" "http://www.w3.org/Graphics/SVG/1.1/DTD/svg11.dtd">
<svg xmlns="http://www.w3.org/2000/svg" version="1.1" viewBox="0 0 49 49" stroke="none">
	<rect width="100%" height="100%" fill="#FFFFFF"/>
	<path d="M10,10h1v1h-1zM10,11h1v1h-1zM10,12h1v1h-1zM10,13h1v1h-1zM10,14h1v1h-1zM10,15h1v1h-1zM10,16h1v1h-1zM10,18h1v1h-1zM10,19h1v1h-1zM10,23h1v1h-1zM10,25h1v1h-1zM10,28h1v1h-1zM10,32h1v1h-1zM10,33h1v1h-1zM10,34h1v1h-1zM10,35h1v1h-1zM10,36h1v1h-1zM10,37h1v1h-1zM10,38h1v1h-1zM11,16h1v1h-1zM11,18h1v1h-1zM11,19h1v1h-1zM11,20h1v1h-1zM11,22h1v1h-1zM11,23h1v1h-1zM11,24h1v1h-1zM11,25h1v1h-1zM11,27h1v1h-1zM11,30h1v1h-1zM11,38h1v1h-1zM12,10h1v1h-1zM12,12h1v1h-1zM12,13h1v1h-1zM12,14h1v1h-1zM12,16h1v1h-1zM12,29h1v1h-1zM12,32h1v1h-1zM12,34h1v1h-1zM12,35h1v1h-1zM12,36h1v1h-1zM12,38h1v1h-1zM13,10h1v1h-1zM13,12h1v1h-1zM13,13h1v1h-1zM13,14h1v1h-1zM13,16h1v1h-1zM13,18h1v1h-1zM13,19h1v1h-1zM13,21h1v1h-1zM13,24h1v1h-1zM13,29h1v1h-1zM13,32h1v1h-1zM13,34h1v1h-1zM13,35h1v1h-1zM13,36h1v1h-1zM13,38h1v1h-1zM14,10h1v1h-1zM14,12h1v1h-1zM14,13h1v1h-1zM14,14h1v1h-1zM14,16h1v1h-1zM14,19h1v1h-1zM14,24h1v1h-1zM14,26h1v1h-1zM14,30h1v1h-1zM14,32h1v1h-1zM14,34h1v1h-1zM14,35h1v1h-1zM14,36h1v1h-1zM14,38h1v1h-1zM15,10h1v1h-1zM15,16h1v1h-1zM15,20h1v1h-1zM15,21h1v1h-1zM15,22h1v1h-1zM15,24h1v1h-1zM15,25h1v1h-1zM15,26h1v1h-1zM15,28h1v1h-1zM15,29h1v1h-1zM15,30h1v1h-1zM15,32h1v1h-1zM15,38h1v1h-1zM16,10h1v1h-1zM16,11h1v1h-1zM16,12h1v1h-1zM16,13h1v1h-1zM16,14h1v1h-1zM16,15h1v1h-1zM16,16h1v1h-1zM16,18h1v1h-1zM16,22h1v1h-1zM16,26h1v1h-1zM16,30h1v1h-1zM16,32h1v1h-1zM16,33h1v1h-1zM16,34h1v1h-1zM16,35h1v1h-1zM16,36h1v1h-1zM16,37h1v1h-1zM16,38h1v1h-1zM17,23h1v1h-1zM17,24h1v1h-1zM17,27h1v1h-1zM17,29h1v1h-1zM18,10h1v1h-1zM18,12h1v1h-1zM18,13h1v1h-1zM18,14h1v1h-1zM18,18h1v1h-1zM18,19h1v1h-1zM18,24h1v1h-1zM18,26h1v1h-1zM18,27h1v1h-1zM18,29h1v1h-1zM18,31h1v1h-1zM18,35h1v1h-1zM18,36h1v1h-1zM18,37h1v1h-1zM18,38h1v1h-1zM19,10h1v1h-1zM19,13h1v1h-1zM19,14h1v1h-1zM19,15h1v1h-1zM19,19h1v1h-1zM19,22h1v1h-1zM19,23h1v1h-1zM19,24h1v1h-1zM19,28h1v1h-1zM19,29h1v1h-1zM19,30h1v1h-1zM19,35h1v1h-1zM19,36h1v1h-1zM19,37h1v1h-1zM19,38h1v1h-1zM20,16h1v1h-1zM20,23h1v1h-1zM20,24h1v1h-1zM20,30h1v1h-1zM20,31h1v1h-1zM20,34h1v1h-1zM21,12h1v1h-1zM21,13h1v1h-1zM21,14h1v1h-1zM21,28h1v1h-1zM21,32h1v1h-1zM21,35h1v1h-1zM21,36h1v1h-1zM21,37h1v1h-1zM22,15h1v1h-1zM22,21h1v1h-1zM22,24h1v1h-1zM22,25h1v1h-1zM22,27h1v1h-1zM22,28h1v1h-1zM22,30h1v1h-1zM22,31h1v1h-1zM22,32h1v1h-1zM22,34h1v1h-1zM22,35h1v1h-1zM23,10h1v1h-1zM23,11h1v1h-1zM23,12h1v1h-1zM23,14h1v1h-1zM23,15h1v1h-1zM23,20h1v1h-1zM23,21h1v1h-1zM23,26h1v1h-1zM23,27h1v1h-1zM23,28h1v1h-1zM23,32h1v1h-1zM23,33h1v1h-1zM23,34h1v1h-1zM24,12h1v1h-1zM24,13h1v1h-1zM24,14h1v1h-1zM24,15h1v1h-1zM24,16h1v1h-1zM24,17h1v1h-1zM24,18h1v1h-1zM24,19h1v1h-1zM24,20h1v1h-1zM24,21h1v1h-1zM24,24h1v1h-1zM24,26h1v1h-1zM24,27h1v1h-1zM24,28h1v1h-1zM24,30h1v1h-1zM24,32h1v1h-1zM24,33h1v1h-1zM24,34h1v1h-1zM24,37h1v1h-1zM24,38h1v1h-1zM25,28h1v1h-1zM25,30h1v1h-1zM25,33h1v1h-1zM25,34h1v1h-1zM25,35h1v1h-1zM25,38h1v1h-1zM26,10h1v1h-1zM26,11h1v1h-1zM26,13h1v1h-1zM26,15h1v1h-1zM26,16h1v1h-1zM26,18h1v1h-1zM26,20h1v1h-1zM26,21h1v1h-1zM26,23h1v1h-1zM26,25h1v1h-1zM26,34h1v1h-1zM26,35h1v1h-1zM26,37h1v1h-1zM26,38h1v1h-1zM27,10h1v1h-1zM27,11h1v1h-1zM27,13h1v1h-1zM27,17h1v1h-1zM27,18h1v1h-1zM27,23h1v1h-1zM27,29h1v1h-1zM27,30h1v1h-1zM27,34h1v1h-1zM28,10h1v1h-1zM28,11h1v1h-1zM28,12h1v1h-1zM28,13h1v1h-1zM28,15h1v1h-1zM28,17h1v1h-1zM28,18h1v1h-1zM28,21h1v1h-1zM28,26h1v1h-1zM28,27h1v1h-1zM28,30h1v1h-1zM28,33h1v1h-1zM28,37h1v1h-1zM29,13h1v1h-1zM29,14h1v1h-1zM29,15h1v1h-1zM29,17h1v1h-1zM29,18h1v1h-1zM29,19h1v1h-1zM29,23h1v1h-1zM29,24h1v1h-1zM29,29h1v1h-1zM29,30h1v1h-1zM29,35h1v1h-1zM29,37h1v1h-1zM29,38h1v1h-1zM30,10h1v1h-1zM30,12h1v1h-1zM30,15h1v1h-1zM30,16h1v1h-1zM30,17h1v1h-1zM30,19h1v1h-1zM30,20h1v1h-1zM30,21h1v1h-1zM30,23h1v1h-1zM30,24h1v1h-1zM30,25h1v1h-1zM30,26h1v1h-1zM30,27h1v1h-1zM30,29h1v1h-1zM30,30h1v1h-1zM30,32h1v1h-1zM30,33h1v1h-1zM30,34h1v1h-1zM30,35h1v1h-1zM30,37h1v1h-1zM30,38h1v1h-1zM31,21h1v1h-1zM31,26h1v1h-1zM31,27h1v1h-1zM31,29h1v1h-1zM31,30h1v1h-1zM31,34h1v1h-1zM31,35h1v1h-1zM31,36h1v1h-1zM32,10h1v1h-1zM32,11h1v1h-1zM32,12h1v1h-1zM32,13h1v1h-1zM32,14h1v1h-1zM32,15h1v1h-1zM32,16h1v1h-1zM32,19h1v1h-1zM32,20h1v1h-1zM32,21h1v1h-1zM32,23h1v1h-1zM32,30h1v1h-1zM32,32h1v1h-1zM32,34h1v1h-1zM33,16h1v1h-1zM33,19h1v1h-1zM33,20h1v1h-1zM33,21h1v1h-1zM33,23h1v1h-1zM33,24h1v1h-1zM33,25h1v1h-1zM33,28h1v1h-1zM33,30h1v1h-1zM33,34h1v1h-1zM33,36h1v1h-1zM33,37h1v1h-1zM34,10h1v1h-1zM34,12h1v1h-1zM34,13h1v1h-1zM34,14h1v1h-1zM34,16h1v1h-1zM34,18h1v1h-1zM34,19h1v1h-1zM34,20h1v1h-1zM34,21h1v1h-1zM34,24h1v1h-1zM34,25h1v1h-1zM34,26h1v1h-1zM34,30h1v1h-1zM34,31h1v1h-1zM34,32h1v1h-1zM34,33h1v1h-1zM34,34h1v1h-1zM34,35h1v1h-1zM35,10h1v1h-1zM35,12h1v1h-1zM35,13h1v1h-1zM35,14h1v1h-1zM35,16h1v1h-1zM35,22h1v1h-1zM35,26h1v1h-1zM35,27h1v1h-1zM35,30h1v1h-1zM35,31h1v1h-1zM35,32h1v1h-1zM35,33h1v1h-1zM35,37h1v1h-1zM35,38h1v1h-1zM36,10h1v1h-1zM36,12h1v1h-1zM36,13h1v1h-1zM36,14h1v1h-1zM36,16h1v1h-1zM36,18h1v1h-1zM36,20h1v1h-1zM36,22h1v1h-1zM36,23h1v1h-1zM36,24h1v1h-1zM36,27h1v1h-1zM36,28h1v1h-1zM36,29h1v1h-1zM36,30h1v1h-1zM36,31h1v1h-1zM36,34h1v1h-1zM36,36h1v1h-1zM37,10h1v1h-1zM37,16h1v1h-1zM37,20h1v1h-1zM37,23h1v1h-1zM37,24h1v1h-1zM37,25h1v1h-1zM37,26h1v1h-1zM37,27h1v1h-1zM37,31h1v1h-1zM37,33h1v1h-1zM37,34h1v1h-1zM37,37h1v1h-1zM37,38h1v1h-1zM38,10h1v1h-1zM38,11h1v1h-1zM38,12h1v1h-1zM38,13h1v1h-1zM38,14h1v1h-1zM38,15h1v1h-1zM38,16h1v1h-1zM38,18h1v1h-1zM38,19h1v1h-1zM38,21h1v1h-1zM38,23h1v1h-1zM38,24h1v1h-1zM38,31h1v1h-1zM38,34h1v1h-1zM38,35h1v1h-1zM38,36h1v1h-1z" fill="#000000"/>
</svg>
