<?xml version="1.0" encoding="UTF-8"?>
<!DOCTYPE svg PUBLIC "-//W3C//DTD SVG 1.1//EN" "http://www.w3.org/Graphics/SVG/1.1/DTD/svg11.dtd">
<svg xmlns="http://www.w3.org/2000/svg" version="1.1" viewBox="0 0 53 53" stroke="none">
	<rect width="100%" height="100%" fill="#FFFFFF"/>
	<path d="M10,10h1v1h-1zM10,11h1v1h-1zM10,12h1v1h-1zM10,13h1v1h-1zM10,14h1v1h-1zM10,15h1v1h-1zM10,16h1v1h-1zM10,19h1v1h-1zM10,20h1v1h-1zM10,21h1v1h-1zM10,24h1v1h-1zM10,25h1v1h-1zM10,26h1v1h-1zM10,30h1v1h-1zM10,32h1v1h-1zM10,34h1v1h-1zM10,36h1v1h-1zM10,37h1v1h-1zM10,38h1v1h-1zM10,39h1v1h-1zM10,40h1v1h-1zM10,41h1v1h-1zM10,42h1v1h-1zM11,16h1v1h-1zM11,22h1v1h-1zM11,25h1v1h-1zM11,26h1v1h-1zM11,33h1v1h-1zM11,42h1v1h-1zM12,10h1v1h-1zM12,12h1v1h-1zM12,13h1v1h-1zM12,14h1v1h-1zM12,16h1v1h-1zM12,18h1v1h-1zM12,23h1v1h-1zM12,29h1v1h-1zM12,31h1v1h-1zM12,32h1v1h-1zM12,33h1v1h-1zM12,34h1v1h-1zM12,36h1v1h-1zM12,38h1v1h-1zM12,39h1v1h-1zM12,40h1v1h-1zM12,42h1v1h-1zM13,10h1v1h-1zM13,12h1v1h-1zM13,13h1v1h-1zM13,14h1v1h-1zM13,16h1v1h-1zM13,27h1v1h-1zM13,33h1v1h-1zM13,36h1v1h-1zM13,38h1v1h-1zM13,39h1v1h-1zM13,40h1v1h-1zM13,42h1v1h-1zM14,10h1v1h-1zM14,12h1v1h-1zM14,13h1v1h-1zM14,14h1v1h-1zM14,16h1v1h-1zM14,18h1v1h-1zM14,19h1v1h-1zM14,22h1v1h-1zM14,23h1v1h-1zM14,25h1v1h-1zM14,26h1v1h-1zM14,29h1v1h-1zM14,34h1v1h-1zM14,36h1v1h-1zM14,38h1v1h-1zM14,39h1v1h-1zM14,40h1v1h-1zM14,42h1v1h-1zM15,10h1v1h-1zM15,16h1v1h-1zM15,19h1v1h-1zM15,24h1v1h-1zM15,25h1v1h-1zM15,26h1v1h-1zM15,28h1v1h-1zM15,29h1v1h-1zM15,31h1v1h-1zM15,32h1v1h-1zM15,33h1v1h-1zM15,34h1v1h-1zM15,36h1v1h-1zM15,42h1v1h-1zM16,10h1v1h-1zM16,11h1v1h-1zM16,12h1v1h-1zM16,13h1v1h-1zM16,14h1v1h-1zM16,15h1v1h-1zM16,16h1v1h-1zM16,20h1v1h-1zM16,22h1v1h-1zM16,26h1v1h-1zM16,30h1v1h-1zM16,32h1v1h-1zM16,34h1v1h-1zM16,36h1v1h-1zM16,37h1v1h-1zM16,38h1v1h-1zM16,39h1v1h-1zM16,40h1v1h-1zM16,41h1v1h-1zM16,42h1v1h-1zM17,18h1v1h-1zM17,19h1v1h-1zM17,20h1v1h-1zM17,28h1v1h-1zM17,29h1v1h-1zM18,10h1v1h-1zM18,11h1v1h-1zM18,12h1v1h-1zM18,13h1v1h-1zM18,14h1v1h-1zM18,16h1v1h-1zM18,17h1v1h-1zM18,19h1v1h-1zM18,20h1v1h-1zM18,21h1v1h-1zM18,22h1v1h-1zM18,23h1v1h-1zM18,25h1v1h-1zM18,28h1v1h-1zM18,29h1v1h-1zM18,30h1v1h-1zM18,31h1v1h-1zM18,32h1v1h-1zM18,34h1v1h-1zM18,35h1v1h-1zM18,36h1v1h-1zM18,38h1v1h-1zM18,40h1v1h-1zM18,41h1v1h-1zM19,10h1v1h-1zM19,11h1v1h-1zM19,12h1v1h-1zM19,13h1v1h-1zM19,14h1v1h-1zM19,19h1v1h-1zM19,23h1v1h-1zM19,32h1v1h-1zM19,37h1v1h-1zM19,38h1v1h-1zM20,14h1v1h-1zM20,16h1v1h-1zM20,17h1v1h-1zM20,21h1v1h-1zM20,26h1v1h-1zM20,29h1v1h-1zM20,30h1v1h-1zM20,34h1v1h-1zM20,39h1v1h-1zM20,40h1v1h-1zM20,41h1v1h-1zM20,42h1v1h-1zM21,10h1v1h-1zM21,11h1v1h-1zM21,17h1v1h-1zM21,19h1v1h-1zM21,22h1v1h-1zM21,24h1v1h-1zM21,25h1v1h-1zM21,26h1v1h-1zM21,29h1v1h-1zM21,30h1v1h-1zM21,33h1v1h-1zM21,34h1v1h-1zM21,37h1v1h-1zM21,40h1v1h-1zM22,12h1v1h-1zM22,13h1v1h-1zM22,15h1v1h-1zM22,17h1v1h-1zM22,19h1v1h-1zM22,20h1v1h-1zM22,22h1v1h-1zM22,25h1v1h-1zM22,26h1v1h-1zM22,28h1v1h-1zM22,29h1v1h-1zM22,30h1v1h-1zM22,33h1v1h-1zM22,34h1v1h-1zM22,41h1v1h-1zM23,11h1v1h-1zM23,12h1v1h-1zM23,13h1v1h-1zM23,14h1v1h-1zM23,15h1v1h-1zM23,18h1v1h-1zM23,19h1v1h-1zM23,23h1v1h-1zM23,24h1v1h-1zM23,25h1v1h-1zM23,26h1v1h-1zM23,37h1v1h-1zM23,38h1v1h-1zM23,39h1v1h-1zM23,40h1v1h-1zM24,19h1v1h-1zM24,26h1v1h-1zM24,28h1v1h-1zM24,29h1v1h-1zM24,30h1v1h-1zM24,31h1v1h-1zM24,32h1v1h-1zM24,34h1v1h-1zM24,35h1v1h-1zM24,41h1v1h-1zM25,10h1v1h-1zM25,11h1v1h-1zM25,13h1v1h-1zM25,14h1v1h-1zM25,15h1v1h-1zM25,20h1v1h-1zM25,22h1v1h-1zM25,26h1v1h-1zM25,32h1v1h-1zM25,37h1v1h-1zM25,40h1v1h-1zM26,10h1v1h-1zM26,11h1v1h-1zM26,16h1v1h-1zM26,18h1v1h-1zM26,20h1v1h-1zM26,24h1v1h-1zM26,26h1v1h-1zM26,27h1v1h-1zM26,37h1v1h-1zM26,39h1v1h-1zM26,40h1v1h-1zM26,41h1v1h-1zM26,42h1v1h-1zM27,11h1v1h-1zM27,13h1v1h-1zM27,14h1v1h-1zM27,17h1v1h-1zM27,18h1v1h-1zM27,20h1v1h-1zM27,23h1v1h-1zM27,25h1v1h-1zM27,26h1v1h-1zM27,28h1v1h-1zM27,30h1v1h-1zM27,32h1v1h-1zM27,41h1v1h-1zM28,15h1v1h-1zM28,16h1v1h-1zM28,17h1v1h-1zM28,28h1v1h-1zM28,29h1v1h-1zM28,30h1v1h-1zM28,32h1v1h-1zM28,33h1v1h-1zM28,34h1v1h-1zM28,35h1v1h-1zM28,38h1v1h-1zM28,39h1v1h-1zM28,42h1v1h-1zM29,10h1v1h-1zM29,11h1v1h-1zM29,12h1v1h-1zM29,13h1v1h-1zM29,18h1v1h-1zM29,22h1v1h-1zM29,23h1v1h-1zM29,25h1v1h-1zM29,41h1v1h-1zM29,42h1v1h-1zM30,11h1v1h-1zM30,12h1v1h-1zM30,16h1v1h-1zM30,17h1v1h-1zM30,18h1v1h-1zM30,20h1v1h-1zM30,21h1v1h-1zM30,22h1v1h-1zM30,26h1v1h-1zM30,29h1v1h-1zM30,31h1v1h-1zM30,34h1v1h-1zM30,35h1v1h-1zM30,36h1v1h-1zM30,39h1v1h-1zM30,40h1v1h-1zM31,14h1v1h-1zM31,17h1v1h-1zM31,18h1v1h-1zM31,23h1v1h-1zM31,25h1v1h-1zM31,26h1v1h-1zM31,27h1v1h-1zM31,28h1v1h-1zM31,29h1v1h-1zM31,30h1v1h-1zM31,31h1v1h-1zM31,33h1v1h-1zM31,34h1v1h-1zM31,35h1v1h-1zM31,36h1v1h-1zM31,37h1v1h-1zM31,41h1v1h-1zM31,42h1v1h-1zM32,10h1v1h-1zM32,11h1v1h-1zM32,15h1v1h-1zM32,16h1v1h-1zM32,17h1v1h-1zM32,19h1v1h-1zM32,20h1v1h-1zM32,21h1v1h-1zM32,23h1v1h-1zM32,25h1v1h-1zM32,27h1v1h-1zM32,29h1v1h-1zM32,37h1v1h-1zM32,39h1v1h-1zM32,41h1v1h-1zM33,10h1v1h-1zM33,11h1v1h-1zM33,14h1v1h-1zM33,15h1v1h-1zM33,22h1v1h-1zM33,33h1v1h-1zM33,42h1v1h-1zM34,11h1v1h-1zM34,12h1v1h-1zM34,13h1v1h-1zM34,16h1v1h-1zM34,17h1v1h-1zM34,19h1v1h-1zM34,20h1v1h-1zM34,21h1v1h-1zM34,25h1v1h-1zM34,26h1v1h-1zM34,29h1v1h-1zM34,31h1v1h-1zM34,34h1v1h-1zM34,35h1v1h-1zM34,36h1v1h-1zM34,37h1v1h-1zM34,38h1v1h-1zM34,39h1v1h-1zM34,40h1v1h-1zM34,42h1v1h-1zM35,19h1v1h-1zM35,20h1v1h-1zM35,21h1v1h-1zM35,26h1v1h-1zM35,30h1v1h-1zM35,31h1v1h-1zM35,40h1v1h-1zM36,10h1v1h-1zM36,11h1v1h-1zM36,12h1v1h-1zM36,13h1v1h-1zM36,14h1v1h-1zM36,15h1v1h-1zM36,16h1v1h-1zM36,18h1v1h-1zM36,19h1v1h-1zM36,20h1v1h-1zM36,21h1v1h-1zM36,22h1v1h-1zM36,23h1v1h-1zM36,25h1v1h-1zM36,26h1v1h-1zM36,27h1v1h-1zM36,30h1v1h-1zM36,31h1v1h-1zM36,33h1v1h-1zM36,34h1v1h-1zM36,36h1v1h-1zM36,38h1v1h-1zM36,42h1v1h-1zM37,16h1v1h-1zM37,27h1v1h-1zM37,29h1v1h-1zM37,30h1v1h-1zM37,31h1v1h-1zM37,33h1v1h-1zM37,34h1v1h-1zM37,38h1v1h-1zM38,10h1v1h-1zM38,12h1v1h-1zM38,13h1v1h-1zM38,14h1v1h-1zM38,16h1v1h-1zM38,18h1v1h-1zM38,21h1v1h-1zM38,32h1v1h-1zM38,33h1v1h-1zM38,34h1v1h-1zM38,35h1v1h-1zM38,36h1v1h-1zM38,37h1v1h-1zM38,38h1v1h-1zM38,39h1v1h-1zM38,40h1v1h-1zM38,41h1v1h-1zM38,42h1v1h-1zM39,10h1v1h-1zM39,12h1v1h-1zM39,13h1v1h-1zM39,14h1v1h-1zM39,16h1v1h-1zM39,18h1v1h-1zM39,22h1v1h-1zM39,23h1v1h-1zM39,24h1v1h-1zM39,26h1v1h-1zM39,30h1v1h-1zM39,35h1v1h-1zM39,38h1v1h-1zM39,39h1v1h-1zM39,40h1v1h-1zM40,10h1v1h-1zM40,12h1v1h-1zM40,13h1v1h-1zM40,14h1v1h-1zM40,16h1v1h-1zM40,18h1v1h-1zM40,20h1v1h-1zM40,24h1v1h-1zM40,28h1v1h-1zM40,32h1v1h-1zM40,36h1v1h-1zM41,10h1v1h-1zM41,16h1v1h-1zM41,18h1v1h-1zM41,19h1v1h-1zM41,20h1v1h-1zM41,22h1v1h-1zM41,24h1v1h-1zM41,25h1v1h-1zM41,28h1v1h-1zM41,30h1v1h-1zM41,31h1v1h-1zM41,32h1v1h-1zM41,35h1v1h-1zM41,38h1v1h-1zM41,39h1v1h-1zM41,41h1v1h-1zM41,42h1v1h-1zM42,10h1v1h-1zM42,11h1v1h-1zM42,12h1v1h-1zM42,13h1v1h-1zM42,14h1v1h-1zM42,15h1v1h-1zM42,16h1v1h-1zM42,18h1v1h-1zM42,19h1v1h-1zM42,20h1v1h-1zM42,21h1v1h-1zM42,22h1v1h-1zM42,23h1v1h-1zM42,24h1v1h-1zM42,27h1v1h-1zM42,28h1v1h-1zM42,29h1v1h-1zM42,31h1v1h-1zM42,32h1v1h-1zM42,33h1v1h-1zM42,35h1v1h-1zM42,36h1v1h-1zM42,39h1v1h-1zM42,40h1v1h-1zM42,42h1v1h-1z" fill="#000000"/>
</svg>
