<?xml version="1.0" encoding="UTF-8"?>
<!DOCTYPE svg PUBLIC "-//W3C//DTD SVG 1.1//EN" "http://www.w3.org/Graphics/SVG/1.1/DTD/svg11.dtd">
<svg xmlns="http://www.w3.org/2000/svg" version="1.1" viewBox="0 0 53 53" stroke="none">
	<rect width="100%" height="100%" fill="#FFFFFF"/>
	<path d="M11,10h1v1h-1zM11,18h1v1h-1zM11,20h1v1h-1zM11,29h1v1h-1zM11,31h1v1h-1zM11,36h1v1h-1zM13,30h1v1h-1zM14,32h1v1h-1zM16,18h1v1h-1zM16,24h1v1h-1zM16,28h1v1h-1zM17,23h1v1h-1zM17,24h1v1h-1zM17,25h1v1h-1zM19,21h1v1h-1zM19,26h1v1h-1zM19,27h1v1h-1zM19,30h1v1h-1zM19,34h1v1h-1zM20,10h1v1h-1zM20,28h1v1h-1zM20,31h1v1h-1zM20,36h1v1h-1zM20,37h1v1h-1zM21,13h1v1h-1zM21,15h1v1h-1zM21,27h1v1h-1zM21,35h1v1h-1zM22,16h1v1h-1zM22,39h1v1h-1zM23,29h1v1h-1zM23,32h1v1h-1zM23,33h1v1h-1zM23,42h1v1h-1zM24,10h1v1h-1zM24,11h1v1h-1zM24,13h1v1h-1zM24,16h1v1h-1zM24,22h1v1h-1zM24,23h1v1h-1zM24,24h1v1h-1zM24,37h1v1h-1zM25,30h1v1h-1zM25,34h1v1h-1zM26,14h1v1h-1zM26,31h1v1h-1zM26,33h1v1h-1zM27,31h1v1h-1zM27,36h1v1h-1zM27,39h1v1h-1zM28,10h1v1h-1zM29,29h1v1h-1zM29,31h1v1h-1zM30,19h1v1h-1zM30,38h1v1h-1zM30,42h1v1h-1zM31,21h1v1h-1zM31,39h1v1h-1zM32,35h1v1h-1zM33,17h1v1h-1zM33,36h1v1h-1zM33,40h1v1h-1zM35,24h1v1h-1zM35,28h1v1h-1zM35,32h1v1h-1zM35,34h1v1h-1zM35,38h1v1h-1zM36,32h1v1h-1zM37,10h1v1h-1zM37,19h1v1h-1zM37,20h1v1h-1zM37,22h1v1h-1zM37,24h1v1h-1zM38,25h1v1h-1zM38,29h1v1h-1z" fill="#000000"/>
</svg>
