<?xml version="1.0" encoding="UTF-8"?>
<!DOCTYPE svg PUBLIC "-//W3C//DTD SVG 1.1//EN" "http://www.w3.org/Graphics/SVG/1.1/DTD/svg11.dtd">
<svg xmlns="http://www.w3.org/2000/svg" version="1.1" viewBox="0 0 53 53" stroke="none">
	<rect width="100%" height="100%" fill="#FFFFFF"/>
	<path d="M11,10h1v1h-1zM11,21h1v1h-1zM11,36h1v1h-1zM12,28h1v1h-1zM13,21h1v1h-1zM13,28h1v1h-1zM13,29h1v1h-1zM13,31h1v1h-1zM15,18h1v1h-1zM15,22h1v1h-1zM16,26h1v1h-1zM18,24h1v1h-1zM18,31h1v1h-1zM18,39h1v1h-1zM19,17h1v1h-1zM19,19h1v1h-1zM19,39h1v1h-1zM20,27h1v1h-1zM20,31h1v1h-1zM21,26h1v1h-1zM21,29h1v1h-1zM21,35h1v1h-1zM22,16h1v1h-1zM22,29h1v1h-1zM22,34h1v1h-1zM22,36h1v1h-1zM22,37h1v1h-1zM23,17h1v1h-1zM23,20h1v1h-1zM24,13h1v1h-1zM24,14h1v1h-1zM24,21h1v1h-1zM24,26h1v1h-1zM24,30h1v1h-1zM24,31h1v1h-1zM24,32h1v1h-1zM24,42h1v1h-1zM25,17h1v1h-1zM25,18h1v1h-1zM25,21h1v1h-1zM25,26h1v1h-1zM26,21h1v1h-1zM26,28h1v1h-1zM26,34h1v1h-1zM26,40h1v1h-1zM27,15h1v1h-1zM27,21h1v1h-1zM27,23h1v1h-1zM27,30h1v1h-1zM28,10h1v1h-1zM28,26h1v1h-1zM29,17h1v1h-1zM29,19h1v1h-1zM29,22h1v1h-1zM30,16h1v1h-1zM31,18h1v1h-1zM31,36h1v1h-1zM31,40h1v1h-1zM32,13h1v1h-1zM32,23h1v1h-1zM32,33h1v1h-1zM34,21h1v1h-1zM35,34h1v1h-1zM35,38h1v1h-1zM36,34h1v1h-1zM36,40h1v1h-1zM37,10h1v1h-1zM37,23h1v1h-1zM37,24h1v1h-1zM37,28h1v1h-1zM37,30h1v1h-1zM37,31h1v1h-1zM37,34h1v1h-1zM37,39h1v1h-1zM38,20h1v1h-1zM38,26h1v1h-1zM38,34h1v1h-1zM39,20h1v1h-1zM39,27h1v1h-1zM39,32h1v1h-1zM39,37h1v1h-1zM41,18h1v1h-1zM42,30h1v1h-1z" fill="#000000"/>
</svg>
